<?xml version="1.0" encoding="UTF-8"?>
<svg width="146px" height="96px" viewBox="0 0 146 96" version="1.1" xmlns="http://www.w3.org/2000/svg" xmlns:xlink="http://www.w3.org/1999/xlink">
    <!-- Generator: Sketch 53.2 (72643) - https://sketchapp.com -->
    <title>iconfinder_shrimp_prawn_crustacean_seafood_food_578561</title>
    <desc>Created with Sketch.</desc>
    <g id="Page-1" stroke="none" stroke-width="1" fill="none" fill-rule="evenodd">
        <g id="iconfinder_shrimp_prawn_crustacean_seafood_food_578561" opacity="0.790039062" transform="translate(132.821500, 83.599458) rotate(42.000000) translate(-132.821500, -83.599458) translate(122.321500, 76.099458)" fill-rule="nonzero">
            <path d="M2.75088906,8.73167363 L3.32223672,8.32816433 C3.26716243,8.29279348 3.21208813,8.25777457 3.15874695,8.22064398 L2.6328452,8.59247788 C2.10097386,8.96712737 1.3389844,8.87808433 0.927660298,8.39309889 C0.636498291,8.04801309 0.602413849,7.59769461 0.795751584,7.23078799 C0.827717783,7.4472365 0.919379897,7.65981357 1.07612981,7.84493864 C1.5402174,8.39257096 2.39155817,8.50325886 3.00469297,8.1057327 C2.96829772,8.07792874 2.9293991,8.0520605 2.89396668,8.0232007 C2.91553424,7.98712595 2.9394126,7.95210705 2.96213556,7.91656022 L2.93459842,7.9359174 C2.40253451,8.31091884 1.64035249,8.22152385 1.22902838,7.73689036 C1.03877173,7.51111521 0.959048795,7.24029061 0.979846081,6.97703291 C1.02952849,6.92582436 1.08441021,6.87778335 1.14564667,6.83431767 L8.32802798,1.75904008 C9.29644976,1.07467565 9.17570996,0.656208528 9.17570996,0.656208528 C9.17570996,0.656208528 9.2577437,1.02909828 8.28912935,1.71346271 L1.04801496,6.680868 C1.12350141,6.48852798 1.25695066,6.31272956 1.44682218,6.17810915 L8.62901092,1.10283155 C9.44530441,0.5258115 9.48766925,0.139019774 9.48092939,0.0314994171 C9.47958142,0.0114383358 9.47688547,0 9.47688547,0 C9.47688547,0 9.55911178,0.372713774 8.59030486,1.05707821 L1.32877833,6.03873742 C1.2898797,6.06618943 1.25309931,6.0952252 1.21843717,6.1254928 C1.21188988,6.13112398 1.20649799,6.13728309 1.19995069,6.14309024 C1.17222098,6.16825458 1.1448764,6.19377087 1.11984263,6.220343 C1.11483587,6.22579821 1.11040682,6.23178134 1.10540007,6.23723654 C1.08017373,6.2650405 1.05571766,6.2931964 1.03337984,6.32258413 C1.03068389,6.32610361 1.02875822,6.32979908 1.02606227,6.33331856 C1.00237647,6.36516993 0.979846081,6.39772519 0.959433929,6.43116033 C0.958471092,6.4327441 0.957700822,6.43432787 0.956737985,6.43591164 C0.868156951,6.58285026 0.812890089,6.74333891 0.791900235,6.90752302 C0.791900235,6.90752302 0.791900235,6.90752302 0.791900235,6.907699 L0.791707667,6.90787497 C0.643430719,7.07628247 0.547339554,7.2726699 0.505744982,7.47820799 C0.504782145,7.48243138 0.504011875,7.48718269 0.503049038,7.4912301 C0.490532152,7.55774842 0.482829454,7.62497064 0.481481481,7.69236884 C0.481481481,7.6946565 0.481674049,7.6960643 0.481674049,7.69817599 C0.480711212,7.76522224 0.485525398,7.83262043 0.495924041,7.8994907 C0.496309176,7.90230629 0.496501744,7.90476993 0.497079446,7.9077615 C0.507670657,7.97111228 0.524424026,8.03411112 0.54541388,8.09587813 C0.549072662,8.10643659 0.552346309,8.11611518 0.556197658,8.12667365 C0.578342916,8.18650494 0.605109794,8.24492844 0.637268561,8.30176817 C0.64266045,8.31162274 0.648822609,8.32042146 0.654407065,8.32992408 C0.689839479,8.38869953 0.728738106,8.44641913 0.774954298,8.50132314 C0.810579279,8.54302907 0.849092772,8.58191941 0.888954237,8.61887404 C0.892420452,8.62221755 0.895886666,8.62450522 0.89935288,8.62784873 C0.938251508,8.66304361 0.979075811,8.6961268 1.02163322,8.72639439 C1.51672417,9.08080683 2.22941636,9.09963609 2.75088906,8.73167363 Z" id="Path" fill="#BD1220"></path>
            <path d="M8.43831865,13.2213804 C8.43831865,13.2213804 8.66541817,13.0076139 9.04223188,12.7577544 C8.38159873,12.6064029 7.81308048,12.2807679 7.41538153,12 C6.84312592,12.3248373 6.48148148,12.6660262 6.48148148,12.6660262 C6.48148148,12.6660262 7.76889171,13.9749472 9.38672844,13.9998733 C9.41882576,14.000671 9.44960401,13.9974804 9.48148148,13.9964834 C8.84217326,13.6315648 8.43831865,13.2213804 8.43831865,13.2213804 Z" id="Path" fill="#BD1220"></path>
            <path d="M8.71346199,9.37474011 C9.31025449,9.05186652 10.6130704,8.10151499 11.3367492,7.56327523 C11.5024387,7.44030923 11.5297949,7.21545711 11.3984462,7.06192527 L11.3984462,7.0617496 L11.3984462,7.0617496 L10.1493727,5.59915684 L8.90010516,4.13638841 C8.7689505,3.98285657 8.52526669,3.95475006 8.35589093,4.07350009 L4.27612734,6.93000032 C3.55438868,7.43521492 2.97893791,8.04705861 2.55016306,8.72091231 C2.52746322,8.75639678 2.50340526,8.79135426 2.48148148,8.82736573 C2.5173744,8.85617491 2.55637157,8.88199777 2.59304055,8.90975295 C2.64426071,8.94857507 2.69528686,8.98757286 2.74844718,9.024287 C2.80199553,9.06135247 2.85748404,9.09630994 2.91316657,9.13109176 C4.55376391,10.1685735 6.98225928,10.310687 8.71346199,9.37474011 Z M5.39676242,8.42157792 C5.19537405,8.56263749 4.90609654,8.52890968 4.75030188,8.34656866 C4.59450722,8.16422765 4.63175825,7.90231006 4.8329526,7.76142616 C5.03434097,7.62054225 5.32361848,7.65391874 5.47941314,7.83625975 C5.63501379,8.0184251 5.59795677,8.28051835 5.39676242,8.42157792 Z" id="Shape" fill="#EC7531"></path>
            <path d="M16.8291084,3.16902729 L14.5594626,6.41601322 C14.4402171,6.58646151 14.4632698,6.7936661 14.5908981,6.89816928 C14.6667625,6.96051083 14.7386451,7.0284379 14.8048693,7.10195048 C15.0307861,7.35329865 15.1672163,7.63960134 15.2179323,7.93347149 C15.2523018,8.13040594 15.4231016,8.32013326 15.6513236,8.35364635 L20.0003255,8.99471932 C20.2287571,9.02859276 20.4406326,8.89598183 20.4586557,8.69796632 C20.5967625,7.19077819 20.1099308,5.6367438 18.9499594,4.34667004 C18.7351499,4.10775415 18.502946,3.88703622 18.258168,3.68217395 C18.2187688,3.64920139 18.1781122,3.61767026 18.1382938,3.58541842 C18.055304,3.51911295 17.9712663,3.45442908 17.8857617,3.39208753 C17.8472007,3.36397978 17.8090589,3.33569185 17.7698693,3.30830481 C17.646642,3.22217977 17.5215285,3.1387574 17.3936907,3.06038002 C17.3630934,3.04200187 17.3310292,3.02938942 17.2987554,3.01929946 C17.2905821,3.01695714 17.282828,3.01515537 17.2750739,3.01317341 C17.2446862,3.00578611 17.2142986,3.00146184 17.1832822,3.00056096 C17.1807673,3.00056096 17.1786716,3.00002042 17.1761568,3.00002042 C17.1021785,2.99929971 17.0300863,3.01767786 16.9661674,3.0515513 C16.9125174,3.08001941 16.8645258,3.11875766 16.8291084,3.16902729 Z" id="Path" fill="#EC7531"></path>
            <path d="M9.56114545,3.64002385 L12.0432222,6.83688216 C12.1737562,7.00495568 12.4215004,7.03976267 12.6182669,6.95687973 C12.9845731,6.80226748 13.386023,6.76746049 13.7648805,6.84611274 C13.9738122,6.8895734 14.2213633,6.81399801 14.3318151,6.63188631 L16.4276967,3.15849514 C16.5178733,3.009652 16.4912258,2.82869413 16.3734362,2.71735023 C16.3473681,2.69273535 16.3184034,2.6702358 16.2832597,2.65350537 C16.1670149,2.59831418 16.0494184,2.54793059 15.9306634,2.49966233 C15.8955196,2.48543185 15.8609552,2.47197059 15.8254252,2.45831702 C15.7346693,2.42312542 15.6437203,2.39024147 15.5512266,2.35889595 C15.5180138,2.34755003 15.4849941,2.3356272 15.4517813,2.32505049 C15.3361158,2.28793585 15.2200642,2.25389808 15.1026608,2.22312947 C15.0599863,2.21178355 15.0171186,2.20236066 14.9740578,2.19178396 C14.8962395,2.17274588 14.8174557,2.15524623 14.7394442,2.13909272 C14.6847976,2.1279391 14.6305372,2.11697778 14.5753112,2.10717029 C14.5040582,2.09428593 14.4328052,2.08351692 14.3607798,2.07294021 C14.2586312,2.05774821 14.1557101,2.04544077 14.052596,2.03486406 C13.9987218,2.02947955 13.9442682,2.02351813 13.890394,2.01928745 C13.8139273,2.01351834 13.7382331,2.00947996 13.6613802,2.00621079 C13.6225676,2.00448006 13.583755,2.00351854 13.5445562,2.00236472 C13.2668818,1.99505717 12.9892074,2.00467236 12.7119192,2.03140259 C12.6999472,2.03255641 12.687782,2.03351793 12.6756169,2.03486406 C12.2704981,2.07601707 11.8684689,2.15409241 11.4728118,2.26909008 C10.836169,2.45427864 10.2176773,2.73273454 9.64050857,3.11388066 C9.46285876,3.23176289 9.43061146,3.47195033 9.56114545,3.64002385 Z" id="Path" fill="#EC7531"></path>
            <path d="M13.3633402,11.0440831 C12.9099102,11.2947941 12.4345764,11.5561153 12.1234283,11.7387151 C11.9493202,11.841053 11.6756148,11.8496097 11.4988857,11.7524058 C11.0842088,11.5251401 10.5656288,11.3288497 9.99725005,11.3199507 C8.61954943,11.2982168 7.48148148,12.385943 7.48148148,12.385943 C7.48148148,12.385943 7.6715027,12.5789818 7.9907009,12.8062475 C8.32955646,13.0472038 8.81368933,13.3266652 9.37607725,13.4565558 C9.05519413,13.6709864 8.86180308,13.8544418 8.86180308,13.8544418 C8.86180308,13.8544418 9.2057134,14.2064639 9.74994165,14.5201521 C10.1777234,14.7667559 10.729253,14.9897432 11.3358231,14.9996689 C11.7731528,15.0066854 12.1859575,14.9014381 12.5457809,14.7546054 C12.7346788,14.6777663 13.0398361,14.6483313 13.242775,14.6854673 C13.5352017,14.7388611 13.8495324,14.7623064 14.1750958,14.7573435 C14.381779,14.7537497 14.5150747,14.5889479 14.474075,14.4037812 L13.7583596,11.2023818 C13.7171728,11.0167017 13.5404437,10.9461946 13.3633402,11.0440831 Z" id="Path" fill="#EC7531"></path>
            <path d="M14.5527047,9.31135364 C14.4718033,9.48224634 14.3654474,9.64300471 14.2344265,9.78746866 C14.1983168,9.82661501 14.1614178,9.86576137 14.1225456,9.90252317 C14.0787404,9.94306051 14.0345406,9.98260429 13.986789,10.0199622 C13.9268035,10.0664609 13.8285378,10.1336257 13.7032392,10.2147004 C13.5434094,10.3180309 13.4481035,10.5731777 13.4923033,10.7881845 L14.2813888,14.6759936 C14.325194,14.8911992 14.5349459,15.0388425 14.7476576,14.9909528 C15.5507528,14.8095283 16.3479284,14.4605893 17.0044143,13.9498983 C18.2720025,12.9624961 19.1039065,11.6186039 19.4701337,10.1668107 C19.5236076,9.95438712 19.382326,9.74891845 19.1676411,9.71175922 L15.0761965,9.0057339 C14.8617089,8.96897209 14.6474187,9.11343604 14.5527047,9.31135364 Z" id="Path" fill="#EC7531"></path>
            <path d="M11.1554171,7 C11.2980962,6.90461263 11.3820007,6.84751455 11.3820007,6.84751455 C11.4141918,6.82736229 11.448252,6.809897 11.4814815,6.79159203 L8.81190723,4 C8.77971616,4.01964845 8.74648667,4.03795343 8.7142956,4.05810569 L8.48148148,4.20370578 L9.81855313,5.60193686 L11.1554171,7 L11.1554171,7 Z" id="Path" fill="#FDEDEA"></path>
            <path d="M16.2069623,3 L14.4814815,6.7965211 C14.5782864,6.85159493 14.6717533,6.91907089 14.7599746,7 L16.4814815,3.21209733 C16.3916706,3.13747438 16.2999523,3.06747596 16.2069623,3 Z" id="Path" fill="#FDEDEA"></path>
            <path d="M15.4814815,9.35750452 L19.4191803,10 C19.443303,9.88173599 19.4645766,9.76274864 19.4814815,9.64321881 L15.5397938,9 C15.5333358,9.12079566 15.5132019,9.2403255 15.4814815,9.35750452 Z" id="Path" fill="#FDEDEA"></path>
            <path d="M13.4814815,10.2244311 L14.1391453,14 C14.2525119,13.9880922 14.3670827,13.9701297 14.4814815,13.9487361 L13.7935407,10 C13.6970328,10.0702356 13.5910635,10.1459206 13.4814815,10.2244311 Z" id="Path" fill="#FDEDEA"></path>
            <circle id="Oval" fill="#21223C" cx="4.98148148" cy="7.5" r="1"></circle>
        </g>
        <g id="iconfinder_shrimp_prawn_crustacean_seafood_food_578561" opacity="0.819335938" transform="translate(51.710910, 7.321100) rotate(151.000000) translate(-51.710910, -7.321100) translate(44.210910, 0.821100)" fill-rule="nonzero">
            <path d="M1.66676405,7.52393645 L2.04766249,7.21009589 C2.0109463,7.18258523 1.9742301,7.1553483 1.93866931,7.12646895 L1.58806814,7.41567309 C1.23348725,7.70706714 0.725494278,7.63781144 0.451278208,7.26060054 C0.257170203,6.99220048 0.234447242,6.64195277 0.363339065,6.35658096 C0.384649865,6.5249298 0.44575794,6.69026752 0.550257885,6.83425368 C0.859649612,7.26018994 1.42721012,7.34628052 1.83596666,7.03709351 C1.81170316,7.01546821 1.78577074,6.99534847 1.76214913,6.97290196 C1.7765275,6.94484382 1.79244641,6.91760689 1.80759505,6.88995936 L1.78923695,6.90501494 C1.43452768,7.19668273 0.926406333,7.12715329 0.652190263,6.75021613 C0.525352493,6.57461324 0.472203872,6.36397188 0.48606873,6.15921589 C0.519190334,6.11938702 0.555778152,6.08202179 0.596602455,6.04821515 L5.38485666,2.10077702 C6.03047118,1.56849358 5.94997798,1.24301915 5.94997798,1.24301915 C5.94997798,1.24301915 6.00466714,1.53304451 5.35892424,2.06532796 L0.531514651,5.92886541 C0.581838949,5.77926762 0.670805118,5.64253551 0.797386131,5.53783074 L5.58551196,1.59039261 C6.12970761,1.14159924 6.15795084,0.840761233 6.1534576,0.757134289 C6.15255895,0.741531226 6.15076166,0.732634742 6.15076166,0.732634742 C6.15076166,0.732634742 6.2055792,1.02252323 5.55970792,1.55480668 L0.718690227,5.42943052 C0.692757809,5.45078208 0.668237552,5.47336546 0.645129456,5.49690692 C0.640764593,5.50128673 0.637170001,5.50607714 0.632805138,5.51059382 C0.614318661,5.53016608 0.596088941,5.55001208 0.579399761,5.5706793 C0.576061925,5.57492224 0.573109224,5.57957578 0.569771388,5.58381872 C0.552953829,5.60544402 0.536649784,5.62734305 0.5217579,5.65020017 C0.519960604,5.65293755 0.51867682,5.6558118 0.516879524,5.65854918 C0.501088992,5.68332247 0.48606873,5.70864323 0.472460629,5.73464833 C0.471818737,5.73588015 0.471305224,5.73711197 0.470663333,5.73834379 C0.41160931,5.85262939 0.374764735,5.97745389 0.360771499,6.10515265 C0.360771499,6.10515265 0.360771499,6.10515265 0.360771499,6.10528952 L0.360643121,6.10542639 C0.261791822,6.23641 0.197731046,6.38915577 0.170001331,6.54901874 C0.169359439,6.55230359 0.168845926,6.55599906 0.168204034,6.55914704 C0.159859444,6.61088351 0.154724312,6.66316746 0.153825664,6.71558828 C0.153825664,6.71736758 0.153954042,6.71846253 0.153954042,6.72010496 C0.15331215,6.77225204 0.156521608,6.82467285 0.163454037,6.87668307 C0.163710793,6.87887297 0.163839172,6.88078913 0.164224307,6.88311591 C0.171285114,6.93238874 0.182454027,6.98138783 0.196447262,7.02942884 C0.19888645,7.03764098 0.201068882,7.04516877 0.203636448,7.05338091 C0.218399954,7.09991636 0.236244539,7.14535686 0.257683716,7.18956554 C0.261278309,7.19723021 0.265386415,7.20407366 0.269109386,7.21146458 C0.292730995,7.25717882 0.318663414,7.30207184 0.349474208,7.34477496 C0.373224195,7.37721291 0.398899857,7.40746095 0.425474167,7.43620344 C0.427784977,7.43880395 0.430095787,7.44058325 0.432406596,7.44318376 C0.458339015,7.47055755 0.485555217,7.49628892 0.513926823,7.51983038 C0.843987458,7.7954845 1.31911558,7.81012948 1.66676405,7.52393645 Z" id="Path" fill="#BD1220"></path>
            <path d="M5.98687776,10.1404551 C5.98687776,10.1404551 6.13827744,10.0335719 6.38948659,9.90864209 C5.94906448,9.83296636 5.57005232,9.67014888 5.30491968,9.52976491 C4.92341594,9.69218358 4.68231965,9.86277801 4.68231965,9.86277801 C4.68231965,9.86277801 5.54059314,10.5172385 6.61915096,10.5297016 C6.64054917,10.5301004 6.661068,10.5285051 6.68231965,10.5280066 C6.25611417,10.3455473 5.98687776,10.1404551 5.98687776,10.1404551 Z" id="Path" fill="#BD1220"></path>
            <path d="M5.98130585,7.67365688 C6.37916752,7.45840782 7.24771144,6.82484013 7.73016399,6.46601362 C7.84062363,6.38403629 7.85886112,6.23413488 7.77129533,6.13178032 L7.77129533,6.13166321 L7.77129533,6.13166321 L6.93857965,5.15660137 L6.10573463,4.18142241 C6.01829819,4.07906786 5.85584232,4.06033018 5.74292514,4.13949686 L3.02308275,6.04383035 C2.54192365,6.38064009 2.1582898,6.78853588 1.8724399,7.23777168 C1.85730667,7.26142799 1.84126803,7.28473298 1.82665218,7.30874063 C1.85058079,7.32794674 1.8765789,7.34516198 1.90102489,7.36366544 C1.93517167,7.38954686 1.9691891,7.41554538 2.00462931,7.44002147 C2.04032821,7.46473178 2.07732055,7.48803677 2.11444224,7.51122464 C3.2081738,8.20287913 4.82717071,8.2976215 5.98130585,7.67365688 Z M3.77017281,7.03821542 C3.63591389,7.13225514 3.44306222,7.10976992 3.33919911,6.98820925 C3.235336,6.86664857 3.26017002,6.69203685 3.39429959,6.59811424 C3.5285585,6.50419164 3.72141018,6.52644263 3.82527328,6.64800331 C3.92900705,6.76944687 3.90430237,6.94417571 3.77017281,7.03821542 Z" id="Shape" fill="#EC7531"></path>
            <path d="M12.1962588,3.90412216 L10.6831616,6.06877944 C10.6036646,6.18241164 10.6190331,6.32054803 10.7041186,6.39021682 C10.7546949,6.43177785 10.8026166,6.47706256 10.8467661,6.52607095 C10.9973772,6.6936364 11.0883307,6.88450485 11.1221414,7.08041829 C11.1450544,7.21170792 11.2589209,7.3381928 11.4110689,7.36053486 L14.3104035,7.78791684 C14.4626912,7.81049914 14.6039416,7.72209185 14.6159569,7.59008151 C14.7080281,6.58528942 14.3834737,5.5492665 13.6101594,4.68921732 C13.4669531,4.52994006 13.3121505,4.38279478 13.1489652,4.24621993 C13.122699,4.22423822 13.0955946,4.20321747 13.069049,4.18171624 C13.0137225,4.1375126 12.9576974,4.09439002 12.9006943,4.05282898 C12.874987,4.03409048 12.8495591,4.01523186 12.8234327,3.99697383 C12.7412812,3.93955714 12.6578722,3.88394223 12.572647,3.83169064 C12.5522488,3.81943854 12.5308726,3.81103024 12.5093568,3.8043036 C12.5039079,3.80274206 12.4987385,3.80154087 12.4935691,3.80021957 C12.4733107,3.7952947 12.4530522,3.79241186 12.4323746,3.79181127 C12.4306981,3.79181127 12.4293009,3.79145091 12.4276244,3.79145091 C12.3783055,3.79097044 12.330244,3.80322253 12.2876314,3.82580483 C12.2518648,3.84478357 12.2198704,3.87060907 12.1962588,3.90412216 Z" id="Path" fill="#EC7531"></path>
            <path d="M7.06596794,3.87771781 L8.83887991,6.43520446 C8.93211847,6.56966327 9.10907864,6.59750886 9.24962612,6.53120251 C9.51127339,6.40751271 9.79802335,6.37966712 10.0686359,6.44258892 C10.2178727,6.47735745 10.394695,6.41689714 10.4735892,6.27120778 L11.9706474,3.49249484 C12.0350592,3.37342033 12.0160253,3.22865403 11.9318899,3.13957891 C11.9132698,3.119887 11.8925808,3.10188737 11.8674781,3.08850303 C11.7844461,3.04435007 11.7004486,3.0040432 11.6156236,2.9654286 C11.5905209,2.95404421 11.565832,2.9432752 11.5404535,2.93235234 C11.4756279,2.90419907 11.4106643,2.87789191 11.3445973,2.85281549 C11.3208739,2.84373875 11.2972884,2.83420048 11.273565,2.82573912 C11.1909468,2.79604741 11.1080527,2.76881719 11.0241932,2.74420231 C10.9937114,2.73512557 10.9630916,2.72758726 10.9323339,2.71912589 C10.8767494,2.70389543 10.8204752,2.68989572 10.7647528,2.6769729 C10.7257195,2.66805 10.686962,2.65928095 10.6475149,2.65143496 C10.5966199,2.64112747 10.5457249,2.63251226 10.4942782,2.6240509 C10.4213149,2.6118973 10.3477998,2.60205134 10.2741469,2.59358997 C10.2356653,2.58928237 10.1967699,2.58451324 10.1582883,2.58112869 C10.1036693,2.5765134 10.049602,2.57328269 9.99470707,2.57066736 C9.96698377,2.56928277 9.93926046,2.56851356 9.91126131,2.5675905 C9.71292247,2.56174447 9.51458364,2.56943662 9.31652065,2.5908208 C9.30796919,2.59174386 9.2992798,2.59251307 9.2905904,2.59358997 C9.00121983,2.62651238 8.71405609,2.68897266 8.43144394,2.78097079 C7.97669905,2.92912164 7.53491929,3.15188636 7.12265588,3.45680326 C6.99576316,3.55110904 6.97272938,3.74325899 7.06596794,3.87771781 Z" id="Path" fill="#EC7531"></path>
            <path d="M9.83662573,9.04542098 C9.5127472,9.23345421 9.17322302,9.42944515 8.95097442,9.56639494 C8.82661148,9.64314844 8.6311076,9.64956595 8.50487253,9.57666297 C8.20867479,9.40621374 7.83826046,9.25899592 7.43227565,9.2523217 C6.44820378,9.23602121 5.6352981,10.0518159 5.6352981,10.0518159 C5.6352981,10.0518159 5.77102754,10.196595 5.99902626,10.3670443 C6.24106595,10.5477615 6.58687514,10.7573576 6.98858079,10.8547755 C6.75937857,11.0155984 6.6212421,11.15319 6.6212421,11.15319 C6.6212421,11.15319 6.86689233,11.4172066 7.25562679,11.6524727 C7.56118519,11.8374255 7.95513487,12.004666 8.38839929,12.0121103 C8.70077759,12.0173727 8.99563809,11.9384372 9.25265483,11.8283127 C9.38758193,11.7706834 9.60555137,11.7486071 9.75050774,11.7764591 C9.95938398,11.8165044 10.1839059,11.8340884 10.4164512,11.8303663 C10.564082,11.8276709 10.6592932,11.7040696 10.6300078,11.5651945 L10.1187825,9.16414503 C10.0893633,9.02488493 9.96312824,8.9720046 9.83662573,9.04542098 Z" id="Path" fill="#EC7531"></path>
            <path d="M10.4541497,7.49268786 C10.4002154,7.60661633 10.3293115,7.71378857 10.2419642,7.81009787 C10.2178911,7.83619544 10.1932918,7.86229301 10.167377,7.88680088 C10.1381735,7.91382577 10.108707,7.94018829 10.0768726,7.96509358 C10.0368823,7.99609272 9.97137178,8.04086926 9.88783936,8.09491905 C9.78128618,8.16380603 9.71774892,8.33390388 9.74721548,8.4772418 L10.2732724,11.0691145 C10.3024759,11.2125849 10.4423105,11.3110138 10.5841183,11.2790873 C11.1195151,11.1581377 11.6509655,10.9255116 12.0886228,10.585051 C12.9336816,9.92678286 13.4882842,9.03085467 13.7324357,8.06299258 C13.768085,7.92137684 13.6738972,7.78439773 13.530774,7.75962491 L10.8031443,7.28894136 C10.6601525,7.26443349 10.5172924,7.36074279 10.4541497,7.49268786 Z" id="Path" fill="#EC7531"></path>
            <path d="M7.76469618,6.49538042 C7.8598156,6.43178884 7.91575191,6.39372345 7.91575191,6.39372345 C7.93721262,6.38028861 7.95991944,6.36864508 7.98207244,6.35644177 L6.20235627,4.49538042 C6.18089556,4.50847939 6.15874256,4.5206827 6.13728185,4.53411754 L5.98207244,4.63118427 L6.87345354,5.56333832 L7.76469618,6.49538042 L7.76469618,6.49538042 Z" id="Path" fill="#FDEDEA"></path>
            <path d="M11.6186463,3.51128536 L10.7559058,6.35867618 C10.8043083,6.39998156 10.8510418,6.45058853 10.8951524,6.51128536 L11.7559058,3.67035835 C11.7110004,3.61439115 11.6651413,3.56189233 11.6186463,3.51128536 Z" id="Path" fill="#FDEDEA"></path>
            <path d="M11.0201528,7.76735496 L13.973427,8.40985044 C13.991519,8.29158643 14.0074742,8.17259909 14.0201528,8.05306925 L11.0638871,7.40985044 C11.0590436,7.5306461 11.0439431,7.65017594 11.0201528,7.76735496 Z" id="Path" fill="#FDEDEA"></path>
            <path d="M9.79071836,8.58556559 L10.4483822,11.4172423 C10.5617488,11.4083114 10.6763196,11.3948395 10.7907184,11.3787943 L10.1027775,8.41724226 C10.0062697,8.46991899 9.90030033,8.5266827 9.79071836,8.58556559 Z" id="Path" fill="#FDEDEA"></path>
            <circle id="Oval" fill="#21223C" cx="3.37736964" cy="6.7226203" r="1"></circle>
        </g>
        <g id="iconfinder_shrimp_prawn_crustacean_seafood_food_578561" opacity="0.641229539" transform="translate(12.500000, 24.500000) rotate(-360.000000) translate(-12.500000, -24.500000) translate(2.000000, 17.000000)" fill-rule="nonzero">
            <path d="M2.75088906,8.73167363 L3.32223672,8.32816433 C3.26716243,8.29279348 3.21208813,8.25777457 3.15874695,8.22064398 L2.6328452,8.59247788 C2.10097386,8.96712737 1.3389844,8.87808433 0.927660298,8.39309889 C0.636498291,8.04801309 0.602413849,7.59769461 0.795751584,7.23078799 C0.827717783,7.4472365 0.919379897,7.65981357 1.07612981,7.84493864 C1.5402174,8.39257096 2.39155817,8.50325886 3.00469297,8.1057327 C2.96829772,8.07792874 2.9293991,8.0520605 2.89396668,8.0232007 C2.91553424,7.98712595 2.9394126,7.95210705 2.96213556,7.91656022 L2.93459842,7.9359174 C2.40253451,8.31091884 1.64035249,8.22152385 1.22902838,7.73689036 C1.03877173,7.51111521 0.959048795,7.24029061 0.979846081,6.97703291 C1.02952849,6.92582436 1.08441021,6.87778335 1.14564667,6.83431767 L8.32802798,1.75904008 C9.29644976,1.07467565 9.17570996,0.656208528 9.17570996,0.656208528 C9.17570996,0.656208528 9.2577437,1.02909828 8.28912935,1.71346271 L1.04801496,6.680868 C1.12350141,6.48852798 1.25695066,6.31272956 1.44682218,6.17810915 L8.62901092,1.10283155 C9.44530441,0.5258115 9.48766925,0.139019774 9.48092939,0.0314994171 C9.47958142,0.0114383358 9.47688547,0 9.47688547,0 C9.47688547,0 9.55911178,0.372713774 8.59030486,1.05707821 L1.32877833,6.03873742 C1.2898797,6.06618943 1.25309931,6.0952252 1.21843717,6.1254928 C1.21188988,6.13112398 1.20649799,6.13728309 1.19995069,6.14309024 C1.17222098,6.16825458 1.1448764,6.19377087 1.11984263,6.220343 C1.11483587,6.22579821 1.11040682,6.23178134 1.10540007,6.23723654 C1.08017373,6.2650405 1.05571766,6.2931964 1.03337984,6.32258413 C1.03068389,6.32610361 1.02875822,6.32979908 1.02606227,6.33331856 C1.00237647,6.36516993 0.979846081,6.39772519 0.959433929,6.43116033 C0.958471092,6.4327441 0.957700822,6.43432787 0.956737985,6.43591164 C0.868156951,6.58285026 0.812890089,6.74333891 0.791900235,6.90752302 C0.791900235,6.90752302 0.791900235,6.90752302 0.791900235,6.907699 L0.791707667,6.90787497 C0.643430719,7.07628247 0.547339554,7.2726699 0.505744982,7.47820799 C0.504782145,7.48243138 0.504011875,7.48718269 0.503049038,7.4912301 C0.490532152,7.55774842 0.482829454,7.62497064 0.481481481,7.69236884 C0.481481481,7.6946565 0.481674049,7.6960643 0.481674049,7.69817599 C0.480711212,7.76522224 0.485525398,7.83262043 0.495924041,7.8994907 C0.496309176,7.90230629 0.496501744,7.90476993 0.497079446,7.9077615 C0.507670657,7.97111228 0.524424026,8.03411112 0.54541388,8.09587813 C0.549072662,8.10643659 0.552346309,8.11611518 0.556197658,8.12667365 C0.578342916,8.18650494 0.605109794,8.24492844 0.637268561,8.30176817 C0.64266045,8.31162274 0.648822609,8.32042146 0.654407065,8.32992408 C0.689839479,8.38869953 0.728738106,8.44641913 0.774954298,8.50132314 C0.810579279,8.54302907 0.849092772,8.58191941 0.888954237,8.61887404 C0.892420452,8.62221755 0.895886666,8.62450522 0.89935288,8.62784873 C0.938251508,8.66304361 0.979075811,8.6961268 1.02163322,8.72639439 C1.51672417,9.08080683 2.22941636,9.09963609 2.75088906,8.73167363 Z" id="Path" fill="#BD1220"></path>
            <path d="M8.43831865,13.2213804 C8.43831865,13.2213804 8.66541817,13.0076139 9.04223188,12.7577544 C8.38159873,12.6064029 7.81308048,12.2807679 7.41538153,12 C6.84312592,12.3248373 6.48148148,12.6660262 6.48148148,12.6660262 C6.48148148,12.6660262 7.76889171,13.9749472 9.38672844,13.9998733 C9.41882576,14.000671 9.44960401,13.9974804 9.48148148,13.9964834 C8.84217326,13.6315648 8.43831865,13.2213804 8.43831865,13.2213804 Z" id="Path" fill="#BD1220"></path>
            <path d="M8.71346199,9.37474011 C9.31025449,9.05186652 10.6130704,8.10151499 11.3367492,7.56327523 C11.5024387,7.44030923 11.5297949,7.21545711 11.3984462,7.06192527 L11.3984462,7.0617496 L11.3984462,7.0617496 L10.1493727,5.59915684 L8.90010516,4.13638841 C8.7689505,3.98285657 8.52526669,3.95475006 8.35589093,4.07350009 L4.27612734,6.93000032 C3.55438868,7.43521492 2.97893791,8.04705861 2.55016306,8.72091231 C2.52746322,8.75639678 2.50340526,8.79135426 2.48148148,8.82736573 C2.5173744,8.85617491 2.55637157,8.88199777 2.59304055,8.90975295 C2.64426071,8.94857507 2.69528686,8.98757286 2.74844718,9.024287 C2.80199553,9.06135247 2.85748404,9.09630994 2.91316657,9.13109176 C4.55376391,10.1685735 6.98225928,10.310687 8.71346199,9.37474011 Z M5.39676242,8.42157792 C5.19537405,8.56263749 4.90609654,8.52890968 4.75030188,8.34656866 C4.59450722,8.16422765 4.63175825,7.90231006 4.8329526,7.76142616 C5.03434097,7.62054225 5.32361848,7.65391874 5.47941314,7.83625975 C5.63501379,8.0184251 5.59795677,8.28051835 5.39676242,8.42157792 Z" id="Shape" fill="#EC7531"></path>
            <path d="M16.8291084,3.16902729 L14.5594626,6.41601322 C14.4402171,6.58646151 14.4632698,6.7936661 14.5908981,6.89816928 C14.6667625,6.96051083 14.7386451,7.0284379 14.8048693,7.10195048 C15.0307861,7.35329865 15.1672163,7.63960134 15.2179323,7.93347149 C15.2523018,8.13040594 15.4231016,8.32013326 15.6513236,8.35364635 L20.0003255,8.99471932 C20.2287571,9.02859276 20.4406326,8.89598183 20.4586557,8.69796632 C20.5967625,7.19077819 20.1099308,5.6367438 18.9499594,4.34667004 C18.7351499,4.10775415 18.502946,3.88703622 18.258168,3.68217395 C18.2187688,3.64920139 18.1781122,3.61767026 18.1382938,3.58541842 C18.055304,3.51911295 17.9712663,3.45442908 17.8857617,3.39208753 C17.8472007,3.36397978 17.8090589,3.33569185 17.7698693,3.30830481 C17.646642,3.22217977 17.5215285,3.1387574 17.3936907,3.06038002 C17.3630934,3.04200187 17.3310292,3.02938942 17.2987554,3.01929946 C17.2905821,3.01695714 17.282828,3.01515537 17.2750739,3.01317341 C17.2446862,3.00578611 17.2142986,3.00146184 17.1832822,3.00056096 C17.1807673,3.00056096 17.1786716,3.00002042 17.1761568,3.00002042 C17.1021785,2.99929971 17.0300863,3.01767786 16.9661674,3.0515513 C16.9125174,3.08001941 16.8645258,3.11875766 16.8291084,3.16902729 Z" id="Path" fill="#EC7531"></path>
            <path d="M9.56114545,3.64002385 L12.0432222,6.83688216 C12.1737562,7.00495568 12.4215004,7.03976267 12.6182669,6.95687973 C12.9845731,6.80226748 13.386023,6.76746049 13.7648805,6.84611274 C13.9738122,6.8895734 14.2213633,6.81399801 14.3318151,6.63188631 L16.4276967,3.15849514 C16.5178733,3.009652 16.4912258,2.82869413 16.3734362,2.71735023 C16.3473681,2.69273535 16.3184034,2.6702358 16.2832597,2.65350537 C16.1670149,2.59831418 16.0494184,2.54793059 15.9306634,2.49966233 C15.8955196,2.48543185 15.8609552,2.47197059 15.8254252,2.45831702 C15.7346693,2.42312542 15.6437203,2.39024147 15.5512266,2.35889595 C15.5180138,2.34755003 15.4849941,2.3356272 15.4517813,2.32505049 C15.3361158,2.28793585 15.2200642,2.25389808 15.1026608,2.22312947 C15.0599863,2.21178355 15.0171186,2.20236066 14.9740578,2.19178396 C14.8962395,2.17274588 14.8174557,2.15524623 14.7394442,2.13909272 C14.6847976,2.1279391 14.6305372,2.11697778 14.5753112,2.10717029 C14.5040582,2.09428593 14.4328052,2.08351692 14.3607798,2.07294021 C14.2586312,2.05774821 14.1557101,2.04544077 14.052596,2.03486406 C13.9987218,2.02947955 13.9442682,2.02351813 13.890394,2.01928745 C13.8139273,2.01351834 13.7382331,2.00947996 13.6613802,2.00621079 C13.6225676,2.00448006 13.583755,2.00351854 13.5445562,2.00236472 C13.2668818,1.99505717 12.9892074,2.00467236 12.7119192,2.03140259 C12.6999472,2.03255641 12.687782,2.03351793 12.6756169,2.03486406 C12.2704981,2.07601707 11.8684689,2.15409241 11.4728118,2.26909008 C10.836169,2.45427864 10.2176773,2.73273454 9.64050857,3.11388066 C9.46285876,3.23176289 9.43061146,3.47195033 9.56114545,3.64002385 Z" id="Path" fill="#EC7531"></path>
            <path d="M13.3633402,11.0440831 C12.9099102,11.2947941 12.4345764,11.5561153 12.1234283,11.7387151 C11.9493202,11.841053 11.6756148,11.8496097 11.4988857,11.7524058 C11.0842088,11.5251401 10.5656288,11.3288497 9.99725005,11.3199507 C8.61954943,11.2982168 7.48148148,12.385943 7.48148148,12.385943 C7.48148148,12.385943 7.6715027,12.5789818 7.9907009,12.8062475 C8.32955646,13.0472038 8.81368933,13.3266652 9.37607725,13.4565558 C9.05519413,13.6709864 8.86180308,13.8544418 8.86180308,13.8544418 C8.86180308,13.8544418 9.2057134,14.2064639 9.74994165,14.5201521 C10.1777234,14.7667559 10.729253,14.9897432 11.3358231,14.9996689 C11.7731528,15.0066854 12.1859575,14.9014381 12.5457809,14.7546054 C12.7346788,14.6777663 13.0398361,14.6483313 13.242775,14.6854673 C13.5352017,14.7388611 13.8495324,14.7623064 14.1750958,14.7573435 C14.381779,14.7537497 14.5150747,14.5889479 14.474075,14.4037812 L13.7583596,11.2023818 C13.7171728,11.0167017 13.5404437,10.9461946 13.3633402,11.0440831 Z" id="Path" fill="#EC7531"></path>
            <path d="M14.5527047,9.31135364 C14.4718033,9.48224634 14.3654474,9.64300471 14.2344265,9.78746866 C14.1983168,9.82661501 14.1614178,9.86576137 14.1225456,9.90252317 C14.0787404,9.94306051 14.0345406,9.98260429 13.986789,10.0199622 C13.9268035,10.0664609 13.8285378,10.1336257 13.7032392,10.2147004 C13.5434094,10.3180309 13.4481035,10.5731777 13.4923033,10.7881845 L14.2813888,14.6759936 C14.325194,14.8911992 14.5349459,15.0388425 14.7476576,14.9909528 C15.5507528,14.8095283 16.3479284,14.4605893 17.0044143,13.9498983 C18.2720025,12.9624961 19.1039065,11.6186039 19.4701337,10.1668107 C19.5236076,9.95438712 19.382326,9.74891845 19.1676411,9.71175922 L15.0761965,9.0057339 C14.8617089,8.96897209 14.6474187,9.11343604 14.5527047,9.31135364 Z" id="Path" fill="#EC7531"></path>
            <path d="M11.1554171,7 C11.2980962,6.90461263 11.3820007,6.84751455 11.3820007,6.84751455 C11.4141918,6.82736229 11.448252,6.809897 11.4814815,6.79159203 L8.81190723,4 C8.77971616,4.01964845 8.74648667,4.03795343 8.7142956,4.05810569 L8.48148148,4.20370578 L9.81855313,5.60193686 L11.1554171,7 L11.1554171,7 Z" id="Path" fill="#FDEDEA"></path>
            <path d="M16.2069623,3 L14.4814815,6.7965211 C14.5782864,6.85159493 14.6717533,6.91907089 14.7599746,7 L16.4814815,3.21209733 C16.3916706,3.13747438 16.2999523,3.06747596 16.2069623,3 Z" id="Path" fill="#FDEDEA"></path>
            <path d="M15.4814815,9.35750452 L19.4191803,10 C19.443303,9.88173599 19.4645766,9.76274864 19.4814815,9.64321881 L15.5397938,9 C15.5333358,9.12079566 15.5132019,9.2403255 15.4814815,9.35750452 Z" id="Path" fill="#FDEDEA"></path>
            <path d="M13.4814815,10.2244311 L14.1391453,14 C14.2525119,13.9880922 14.3670827,13.9701297 14.4814815,13.9487361 L13.7935407,10 C13.6970328,10.0702356 13.5910635,10.1459206 13.4814815,10.2244311 Z" id="Path" fill="#FDEDEA"></path>
            <circle id="Oval" fill="#21223C" cx="4.98148148" cy="7.5" r="1"></circle>
        </g>
        <g id="iconfinder_shrimp_prawn_crustacean_seafood_food_578561" opacity="0.807128906" transform="translate(66.360831, 35.063021) rotate(-262.000000) translate(-66.360831, -35.063021) translate(59.860831, 30.563021)" fill-rule="nonzero">
            <path d="M1.51293838,4.85092979 L1.89383683,4.62675796 C1.85712063,4.60710749 1.82040444,4.58765254 1.78484364,4.56702443 L1.43424248,4.77359882 C1.07966159,4.98173743 0.571668614,4.93226907 0.297452544,4.66283271 C0.10334454,4.47111838 0.0806215787,4.22094145 0.209513402,4.01710444 C0.230824201,4.13735361 0.291932277,4.25545198 0.396432221,4.35829924 C0.705823948,4.66253942 1.27338446,4.7240327 1.682141,4.50318483 C1.65787749,4.48773819 1.63194508,4.47336695 1.60832347,4.45733372 C1.62270184,4.4372922 1.63862075,4.41783725 1.65376939,4.39808901 L1.63541129,4.408843 C1.28070202,4.61717713 0.772580669,4.56751325 0.498364599,4.29827242 C0.371526829,4.17284178 0.318378209,4.02238367 0.332243066,3.87612939 C0.36536467,3.8476802 0.401952488,3.82099075 0.442776791,3.79684315 L5.231031,0.977244487 C5.87664552,0.597042025 5.79615232,0.364560293 5.79615232,0.364560293 C5.79615232,0.364560293 5.85084148,0.571721265 5.20509858,0.951923727 L0.377688988,3.71159333 C0.428013285,3.60473777 0.516979454,3.50707198 0.643560468,3.43228286 L5.43168629,0.612684194 C5.97588195,0.2921175 6.00412518,0.0772332078 5.99963194,0.0174996762 C5.99873329,0.00635463102 5.99693599,-4.4408921e-16 5.99693599,-4.4408921e-16 C5.99693599,-4.4408921e-16 6.05175353,0.207063208 5.40588225,0.58726567 L0.564864564,3.35485412 C0.538932145,3.37010524 0.514411888,3.38623622 0.491303792,3.40305156 C0.48693893,3.40617999 0.483344337,3.40960171 0.478979474,3.41282791 C0.460492998,3.4268081 0.442263278,3.44098381 0.425574098,3.45574611 C0.422236261,3.45877678 0.41928356,3.46210074 0.415945724,3.46513141 C0.399128166,3.48057805 0.38282412,3.49622022 0.367932236,3.51254674 C0.36613494,3.51450201 0.364851157,3.51655504 0.363053861,3.51851031 C0.347263328,3.53620552 0.332243066,3.55429177 0.318634965,3.57286685 C0.317993074,3.57374672 0.317479561,3.57462659 0.316837669,3.57550647 C0.257783646,3.65713903 0.220939071,3.74629939 0.206945836,3.83751279 C0.206945836,3.83751279 0.206945836,3.83751279 0.206945836,3.83761055 L0.206817457,3.83770832 C0.107966159,3.93126804 0.043905382,4.04037217 0.0161756671,4.15456 C0.0155337755,4.15690632 0.0150202623,4.15954594 0.0143783707,4.1617945 C0.00603378057,4.19874912 0.00089864817,4.2360948 0,4.27353824 C0,4.27480917 0.00012837831,4.27559128 0.00012837831,4.27676444 C-0.00051351324,4.31401235 0.00269594451,4.35145579 0.00962837325,4.38860595 C0.00988512987,4.39017016 0.0100135082,4.39153885 0.0103986431,4.39320083 C0.0174594502,4.42839571 0.0286283631,4.46339506 0.0426215989,4.49771007 C0.0450607868,4.50357588 0.0472432181,4.50895288 0.0498107843,4.51481869 C0.0645742899,4.5480583 0.082418875,4.5805158 0.103858053,4.61209343 C0.107452645,4.61756819 0.111560751,4.62245637 0.115283722,4.6277356 C0.138905331,4.66038863 0.16483775,4.69245507 0.195648544,4.7229573 C0.219398532,4.74612726 0.245074194,4.76773301 0.271648504,4.78826335 C0.273959313,4.79012086 0.276270123,4.79139179 0.278580933,4.7932493 C0.304513351,4.81280201 0.331729553,4.83118155 0.360101159,4.84799689 C0.690161794,5.04489268 1.16528992,5.05535338 1.51293838,4.85092979 Z" id="Path" fill="#BD1220"></path>
            <path d="M5.30455811,7.6106902 C5.30455811,7.6106902 5.45595779,7.50380695 5.70716694,7.37887719 C5.26674483,7.30320145 4.88773267,7.14038397 4.62260003,7 C4.24109629,7.16241867 4,7.33301311 4,7.33301311 C4,7.33301311 4.85827349,7.98747359 5.93683131,7.99993666 C5.95822952,8.00033548 5.97874835,7.9987402 6,7.99824168 C5.57379452,7.81578241 5.30455811,7.6106902 5.30455811,7.6106902 Z" id="Path" fill="#BD1220"></path>
            <path d="M5.15465367,5.58316007 C5.55251534,5.36791101 6.42105927,4.73434332 6.90351181,4.37551682 C7.01397145,4.29353948 7.03220894,4.14363807 6.94464315,4.04128351 L6.94464315,4.0411664 L6.94464315,4.0411664 L6.11192747,3.06610456 L5.27908245,2.09092561 C5.19164601,1.98857105 5.02919014,1.96983337 4.91627296,2.04900006 L2.19643057,3.95333354 C1.71527147,4.29014328 1.33163762,4.69803908 1.04578772,5.14727487 C1.03065449,5.17093119 1.01461585,5.19423617 1,5.21824382 C1.02392861,5.23744994 1.04992672,5.25466518 1.07437271,5.27316863 C1.10851949,5.29905005 1.14253692,5.32504858 1.17797713,5.34952467 C1.21367603,5.37423498 1.25066837,5.39753996 1.28779006,5.42072784 C2.38152162,6.11238232 4.00051853,6.2071247 5.15465367,5.58316007 Z M2.94352063,4.94771862 C2.80926172,5.04175833 2.61641004,5.01927312 2.51254693,4.89771244 C2.40868382,4.77615176 2.43351784,4.60154004 2.56764741,4.50761744 C2.70190632,4.41369483 2.894758,4.43594583 2.99862111,4.5575065 C3.10235487,4.67895007 3.0776502,4.8536789 2.94352063,4.94771862 Z" id="Shape" fill="#EC7531"></path>
            <path d="M10.5650846,2.11268486 L9.0519874,4.27734215 C8.97249041,4.39097434 8.9878589,4.52911073 9.07294442,4.59877952 C9.12352071,4.64034056 9.17144244,4.68562527 9.21559191,4.73463366 C9.36620306,4.9021991 9.45715655,5.09306756 9.49096722,5.28898099 C9.51388024,5.42027062 9.62774674,5.54675551 9.77989475,5.56909757 L12.6792294,5.99647955 C12.8315171,6.01906184 12.9727674,5.93065455 12.9847828,5.79864421 C13.076854,4.79385213 12.7522995,3.7578292 11.9789853,2.89778003 C11.8357789,2.73850277 11.6809764,2.59135748 11.517791,2.45478263 C11.4915249,2.43280093 11.4644204,2.41178017 11.4378749,2.39027895 C11.3825483,2.3460753 11.3265232,2.30295272 11.2695201,2.26139169 C11.2438128,2.24265319 11.218385,2.22379457 11.1922585,2.20553654 C11.110107,2.14811985 11.026698,2.09250494 10.9414728,2.04025335 C10.9210746,2.02800125 10.8996985,2.01959295 10.8781826,2.0128663 C10.8727338,2.01130476 10.8675644,2.01010358 10.862395,2.00878227 C10.8421365,2.00385741 10.821878,2.00097456 10.8012005,2.00037397 C10.7995239,2.00037397 10.7981268,2.00001361 10.7964502,2.00001361 C10.7471313,1.99953314 10.6990699,2.01178524 10.6564573,2.03436753 C10.6206906,2.05334627 10.5886962,2.07917177 10.5650846,2.11268486 Z" id="Path" fill="#EC7531"></path>
            <path d="M6.04552227,1.98401431 L7.46385184,3.9021293 C7.53844269,4.00297341 7.68001083,4.0238576 7.79244881,3.97412784 C8.00176663,3.88136049 8.2311666,3.86047629 8.44765661,3.90766765 C8.56704611,3.93374404 8.7085039,3.88839881 8.77161924,3.77913179 L9.96926582,1.69509708 C10.0207953,1.6057912 10.0055682,1.49721648 9.93825986,1.43041014 C9.92336376,1.41564121 9.90681254,1.40214148 9.88673038,1.39210322 C9.8203048,1.35898851 9.75310683,1.32875835 9.68524681,1.2997974 C9.66516466,1.29125911 9.64541353,1.28318235 9.6251107,1.27499021 C9.5732502,1.25387525 9.52127935,1.23414488 9.46842578,1.21533757 C9.44944704,1.20853002 9.43057864,1.20137632 9.41159991,1.19503029 C9.34550535,1.17276151 9.27919011,1.15233885 9.21210248,1.13387768 C9.18771701,1.12707013 9.1632212,1.1214164 9.13861505,1.11507037 C9.09414743,1.10364753 9.0491281,1.09314774 9.00455013,1.08345563 C8.97332349,1.07676346 8.94231753,1.07018667 8.91075986,1.06430217 C8.87004385,1.05657156 8.82932784,1.05011015 8.78817046,1.04376413 C8.72979981,1.03464893 8.67098779,1.02726446 8.61206544,1.02091843 C8.58128016,1.01768773 8.55016386,1.01411088 8.51937858,1.01157247 C8.47568335,1.008111 8.43242948,1.00568797 8.38851357,1.00372648 C8.36633493,1.00268803 8.34415629,1.00211112 8.32175696,1.00141883 C8.16308589,0.997034303 8.00441482,1.00280342 7.84596444,1.01884155 C7.83912326,1.01953385 7.83217175,1.02011076 7.82522024,1.02091843 C7.59372378,1.04561024 7.36399279,1.09245545 7.13790307,1.16145405 C6.77410716,1.27256718 6.42068335,1.43964072 6.09087262,1.6683284 C5.98935845,1.73905773 5.97093142,1.8831702 6.04552227,1.98401431 Z" id="Path" fill="#EC7531"></path>
            <path d="M8.3610621,7.02204156 C8.10195928,7.14739704 7.83033993,7.27805767 7.65254105,7.36935753 C7.5530507,7.42052652 7.3966476,7.42480487 7.29565955,7.37620288 C7.05870135,7.26257006 6.76236988,7.16442485 6.43758204,7.15997537 C5.65032454,7.14910838 5,7.69297148 5,7.69297148 C5,7.69297148 5.10858355,7.78949092 5.29098252,7.90312374 C5.48461428,8.02360191 5.76126163,8.16333262 6.08262615,8.22827789 C5.89926437,8.33549319 5.7887552,8.42722089 5.7887552,8.42722089 C5.7887552,8.42722089 5.98527538,8.60323196 6.29626295,8.76007605 C6.54070967,8.88337793 6.85586942,8.99487158 7.20248095,8.99983446 C7.45238359,9.0033427 7.68827199,8.95071907 7.89388538,8.87730268 C8.00182706,8.83888315 8.17620262,8.82416565 8.29216771,8.84273366 C8.4592687,8.86943053 8.63888622,8.88115319 8.82492248,8.87867175 C8.94302715,8.87687485 9.0191961,8.79447394 8.99576773,8.70189058 L8.58678751,7.10119092 C8.56325216,7.00835086 8.46226411,6.9730973 8.3610621,7.02204156 Z" id="Path" fill="#EC7531"></path>
            <path d="M8.71414884,5.20756909 C8.66021452,5.32149756 8.58931062,5.42866981 8.50196332,5.52497911 C8.4778902,5.55107668 8.45329089,5.57717424 8.4273761,5.60168211 C8.39817264,5.62870701 8.36870608,5.65506952 8.33687168,5.67997482 C8.29688135,5.71097396 8.23137088,5.7557505 8.14783845,5.80980028 C8.04128528,5.87868726 7.97774802,6.04878512 8.00721457,6.19212303 L8.53327154,8.78399571 C8.562475,8.9274661 8.7023096,9.025895 8.8441174,8.99396853 C9.37951421,8.87301889 9.91096461,8.64039285 10.3486219,8.29993219 C11.1936807,7.64166409 11.7482833,6.74573591 11.9924348,5.77787382 C12.0280841,5.63625808 11.9338963,5.49927896 11.7907731,5.47450615 L9.06314337,5.0038226 C8.92015164,4.97931473 8.77729146,5.07562403 8.71414884,5.20756909 Z" id="Path" fill="#EC7531"></path>
            <path d="M6.78262375,4 C6.87774316,3.93640842 6.93367947,3.89834304 6.93367947,3.89834304 C6.95514019,3.8849082 6.97784701,3.87326467 7,3.86106135 L5.22028384,2 C5.19882312,2.01309897 5.17667013,2.02530228 5.15520942,2.03873712 L5,2.13580385 L5.8913811,3.0679579 L6.78262375,4 L6.78262375,4 Z" id="Path" fill="#FDEDEA"></path>
            <path d="M9.86274042,2 L9,3.89826055 C9.04840248,3.92579747 9.09513591,3.95953545 9.13924654,4 L10,2.10604866 C9.95509458,2.06873719 9.90923542,2.03373798 9.86274042,2 Z" id="Path" fill="#FDEDEA"></path>
            <path d="M10,5.35750452 L11.9688494,6 C11.9809108,5.88173599 11.9915476,5.76274864 12,5.64321881 L10.0291562,5 C10.0259272,5.12079566 10.0158602,5.2403255 10,5.35750452 Z" id="Path" fill="#FDEDEA"></path>
            <path d="M8,6.11221555 L8.65766386,8 C8.77103045,7.99404612 8.88560124,7.98506484 9,7.97436803 L8.31205918,6 C8.21555135,6.03511782 8.10958197,6.07296029 8,6.11221555 Z" id="Path" fill="#FDEDEA"></path>
            <circle id="Oval" fill="#21223C" cx="3.5" cy="4.5" r="1"></circle>
        </g>
        <g id="iconfinder_shrimp_prawn_crustacean_seafood_food_578561" transform="translate(74.214173, 79.997596) rotate(-274.000000) translate(-74.214173, -79.997596) translate(63.714173, 72.497596)" fill-rule="nonzero">
            <path d="M2.75088906,8.73167363 L3.32223672,8.32816433 C3.26716243,8.29279348 3.21208813,8.25777457 3.15874695,8.22064398 L2.6328452,8.59247788 C2.10097386,8.96712737 1.3389844,8.87808433 0.927660298,8.39309889 C0.636498291,8.04801309 0.602413849,7.59769461 0.795751584,7.23078799 C0.827717783,7.4472365 0.919379897,7.65981357 1.07612981,7.84493864 C1.5402174,8.39257096 2.39155817,8.50325886 3.00469297,8.1057327 C2.96829772,8.07792874 2.9293991,8.0520605 2.89396668,8.0232007 C2.91553424,7.98712595 2.9394126,7.95210705 2.96213556,7.91656022 L2.93459842,7.9359174 C2.40253451,8.31091884 1.64035249,8.22152385 1.22902838,7.73689036 C1.03877173,7.51111521 0.959048795,7.24029061 0.979846081,6.97703291 C1.02952849,6.92582436 1.08441021,6.87778335 1.14564667,6.83431767 L8.32802798,1.75904008 C9.29644976,1.07467565 9.17570996,0.656208528 9.17570996,0.656208528 C9.17570996,0.656208528 9.2577437,1.02909828 8.28912935,1.71346271 L1.04801496,6.680868 C1.12350141,6.48852798 1.25695066,6.31272956 1.44682218,6.17810915 L8.62901092,1.10283155 C9.44530441,0.5258115 9.48766925,0.139019774 9.48092939,0.0314994171 C9.47958142,0.0114383358 9.47688547,0 9.47688547,0 C9.47688547,0 9.55911178,0.372713774 8.59030486,1.05707821 L1.32877833,6.03873742 C1.2898797,6.06618943 1.25309931,6.0952252 1.21843717,6.1254928 C1.21188988,6.13112398 1.20649799,6.13728309 1.19995069,6.14309024 C1.17222098,6.16825458 1.1448764,6.19377087 1.11984263,6.220343 C1.11483587,6.22579821 1.11040682,6.23178134 1.10540007,6.23723654 C1.08017373,6.2650405 1.05571766,6.2931964 1.03337984,6.32258413 C1.03068389,6.32610361 1.02875822,6.32979908 1.02606227,6.33331856 C1.00237647,6.36516993 0.979846081,6.39772519 0.959433929,6.43116033 C0.958471092,6.4327441 0.957700822,6.43432787 0.956737985,6.43591164 C0.868156951,6.58285026 0.812890089,6.74333891 0.791900235,6.90752302 C0.791900235,6.90752302 0.791900235,6.90752302 0.791900235,6.907699 L0.791707667,6.90787497 C0.643430719,7.07628247 0.547339554,7.2726699 0.505744982,7.47820799 C0.504782145,7.48243138 0.504011875,7.48718269 0.503049038,7.4912301 C0.490532152,7.55774842 0.482829454,7.62497064 0.481481481,7.69236884 C0.481481481,7.6946565 0.481674049,7.6960643 0.481674049,7.69817599 C0.480711212,7.76522224 0.485525398,7.83262043 0.495924041,7.8994907 C0.496309176,7.90230629 0.496501744,7.90476993 0.497079446,7.9077615 C0.507670657,7.97111228 0.524424026,8.03411112 0.54541388,8.09587813 C0.549072662,8.10643659 0.552346309,8.11611518 0.556197658,8.12667365 C0.578342916,8.18650494 0.605109794,8.24492844 0.637268561,8.30176817 C0.64266045,8.31162274 0.648822609,8.32042146 0.654407065,8.32992408 C0.689839479,8.38869953 0.728738106,8.44641913 0.774954298,8.50132314 C0.810579279,8.54302907 0.849092772,8.58191941 0.888954237,8.61887404 C0.892420452,8.62221755 0.895886666,8.62450522 0.89935288,8.62784873 C0.938251508,8.66304361 0.979075811,8.6961268 1.02163322,8.72639439 C1.51672417,9.08080683 2.22941636,9.09963609 2.75088906,8.73167363 Z" id="Path" fill="#BD1220"></path>
            <path d="M8.43831865,13.2213804 C8.43831865,13.2213804 8.66541817,13.0076139 9.04223188,12.7577544 C8.38159873,12.6064029 7.81308048,12.2807679 7.41538153,12 C6.84312592,12.3248373 6.48148148,12.6660262 6.48148148,12.6660262 C6.48148148,12.6660262 7.76889171,13.9749472 9.38672844,13.9998733 C9.41882576,14.000671 9.44960401,13.9974804 9.48148148,13.9964834 C8.84217326,13.6315648 8.43831865,13.2213804 8.43831865,13.2213804 Z" id="Path" fill="#BD1220"></path>
            <path d="M8.71346199,9.37474011 C9.31025449,9.05186652 10.6130704,8.10151499 11.3367492,7.56327523 C11.5024387,7.44030923 11.5297949,7.21545711 11.3984462,7.06192527 L11.3984462,7.0617496 L11.3984462,7.0617496 L10.1493727,5.59915684 L8.90010516,4.13638841 C8.7689505,3.98285657 8.52526669,3.95475006 8.35589093,4.07350009 L4.27612734,6.93000032 C3.55438868,7.43521492 2.97893791,8.04705861 2.55016306,8.72091231 C2.52746322,8.75639678 2.50340526,8.79135426 2.48148148,8.82736573 C2.5173744,8.85617491 2.55637157,8.88199777 2.59304055,8.90975295 C2.64426071,8.94857507 2.69528686,8.98757286 2.74844718,9.024287 C2.80199553,9.06135247 2.85748404,9.09630994 2.91316657,9.13109176 C4.55376391,10.1685735 6.98225928,10.310687 8.71346199,9.37474011 Z M5.39676242,8.42157792 C5.19537405,8.56263749 4.90609654,8.52890968 4.75030188,8.34656866 C4.59450722,8.16422765 4.63175825,7.90231006 4.8329526,7.76142616 C5.03434097,7.62054225 5.32361848,7.65391874 5.47941314,7.83625975 C5.63501379,8.0184251 5.59795677,8.28051835 5.39676242,8.42157792 Z" id="Shape" fill="#EC7531"></path>
            <path d="M16.8291084,3.16902729 L14.5594626,6.41601322 C14.4402171,6.58646151 14.4632698,6.7936661 14.5908981,6.89816928 C14.6667625,6.96051083 14.7386451,7.0284379 14.8048693,7.10195048 C15.0307861,7.35329865 15.1672163,7.63960134 15.2179323,7.93347149 C15.2523018,8.13040594 15.4231016,8.32013326 15.6513236,8.35364635 L20.0003255,8.99471932 C20.2287571,9.02859276 20.4406326,8.89598183 20.4586557,8.69796632 C20.5967625,7.19077819 20.1099308,5.6367438 18.9499594,4.34667004 C18.7351499,4.10775415 18.502946,3.88703622 18.258168,3.68217395 C18.2187688,3.64920139 18.1781122,3.61767026 18.1382938,3.58541842 C18.055304,3.51911295 17.9712663,3.45442908 17.8857617,3.39208753 C17.8472007,3.36397978 17.8090589,3.33569185 17.7698693,3.30830481 C17.646642,3.22217977 17.5215285,3.1387574 17.3936907,3.06038002 C17.3630934,3.04200187 17.3310292,3.02938942 17.2987554,3.01929946 C17.2905821,3.01695714 17.282828,3.01515537 17.2750739,3.01317341 C17.2446862,3.00578611 17.2142986,3.00146184 17.1832822,3.00056096 C17.1807673,3.00056096 17.1786716,3.00002042 17.1761568,3.00002042 C17.1021785,2.99929971 17.0300863,3.01767786 16.9661674,3.0515513 C16.9125174,3.08001941 16.8645258,3.11875766 16.8291084,3.16902729 Z" id="Path" fill="#EC7531"></path>
            <path d="M9.56114545,3.64002385 L12.0432222,6.83688216 C12.1737562,7.00495568 12.4215004,7.03976267 12.6182669,6.95687973 C12.9845731,6.80226748 13.386023,6.76746049 13.7648805,6.84611274 C13.9738122,6.8895734 14.2213633,6.81399801 14.3318151,6.63188631 L16.4276967,3.15849514 C16.5178733,3.009652 16.4912258,2.82869413 16.3734362,2.71735023 C16.3473681,2.69273535 16.3184034,2.6702358 16.2832597,2.65350537 C16.1670149,2.59831418 16.0494184,2.54793059 15.9306634,2.49966233 C15.8955196,2.48543185 15.8609552,2.47197059 15.8254252,2.45831702 C15.7346693,2.42312542 15.6437203,2.39024147 15.5512266,2.35889595 C15.5180138,2.34755003 15.4849941,2.3356272 15.4517813,2.32505049 C15.3361158,2.28793585 15.2200642,2.25389808 15.1026608,2.22312947 C15.0599863,2.21178355 15.0171186,2.20236066 14.9740578,2.19178396 C14.8962395,2.17274588 14.8174557,2.15524623 14.7394442,2.13909272 C14.6847976,2.1279391 14.6305372,2.11697778 14.5753112,2.10717029 C14.5040582,2.09428593 14.4328052,2.08351692 14.3607798,2.07294021 C14.2586312,2.05774821 14.1557101,2.04544077 14.052596,2.03486406 C13.9987218,2.02947955 13.9442682,2.02351813 13.890394,2.01928745 C13.8139273,2.01351834 13.7382331,2.00947996 13.6613802,2.00621079 C13.6225676,2.00448006 13.583755,2.00351854 13.5445562,2.00236472 C13.2668818,1.99505717 12.9892074,2.00467236 12.7119192,2.03140259 C12.6999472,2.03255641 12.687782,2.03351793 12.6756169,2.03486406 C12.2704981,2.07601707 11.8684689,2.15409241 11.4728118,2.26909008 C10.836169,2.45427864 10.2176773,2.73273454 9.64050857,3.11388066 C9.46285876,3.23176289 9.43061146,3.47195033 9.56114545,3.64002385 Z" id="Path" fill="#EC7531"></path>
            <path d="M13.3633402,11.0440831 C12.9099102,11.2947941 12.4345764,11.5561153 12.1234283,11.7387151 C11.9493202,11.841053 11.6756148,11.8496097 11.4988857,11.7524058 C11.0842088,11.5251401 10.5656288,11.3288497 9.99725005,11.3199507 C8.61954943,11.2982168 7.48148148,12.385943 7.48148148,12.385943 C7.48148148,12.385943 7.6715027,12.5789818 7.9907009,12.8062475 C8.32955646,13.0472038 8.81368933,13.3266652 9.37607725,13.4565558 C9.05519413,13.6709864 8.86180308,13.8544418 8.86180308,13.8544418 C8.86180308,13.8544418 9.2057134,14.2064639 9.74994165,14.5201521 C10.1777234,14.7667559 10.729253,14.9897432 11.3358231,14.9996689 C11.7731528,15.0066854 12.1859575,14.9014381 12.5457809,14.7546054 C12.7346788,14.6777663 13.0398361,14.6483313 13.242775,14.6854673 C13.5352017,14.7388611 13.8495324,14.7623064 14.1750958,14.7573435 C14.381779,14.7537497 14.5150747,14.5889479 14.474075,14.4037812 L13.7583596,11.2023818 C13.7171728,11.0167017 13.5404437,10.9461946 13.3633402,11.0440831 Z" id="Path" fill="#EC7531"></path>
            <path d="M14.5527047,9.31135364 C14.4718033,9.48224634 14.3654474,9.64300471 14.2344265,9.78746866 C14.1983168,9.82661501 14.1614178,9.86576137 14.1225456,9.90252317 C14.0787404,9.94306051 14.0345406,9.98260429 13.986789,10.0199622 C13.9268035,10.0664609 13.8285378,10.1336257 13.7032392,10.2147004 C13.5434094,10.3180309 13.4481035,10.5731777 13.4923033,10.7881845 L14.2813888,14.6759936 C14.325194,14.8911992 14.5349459,15.0388425 14.7476576,14.9909528 C15.5507528,14.8095283 16.3479284,14.4605893 17.0044143,13.9498983 C18.2720025,12.9624961 19.1039065,11.6186039 19.4701337,10.1668107 C19.5236076,9.95438712 19.382326,9.74891845 19.1676411,9.71175922 L15.0761965,9.0057339 C14.8617089,8.96897209 14.6474187,9.11343604 14.5527047,9.31135364 Z" id="Path" fill="#EC7531"></path>
            <path d="M11.1554171,7 C11.2980962,6.90461263 11.3820007,6.84751455 11.3820007,6.84751455 C11.4141918,6.82736229 11.448252,6.809897 11.4814815,6.79159203 L8.81190723,4 C8.77971616,4.01964845 8.74648667,4.03795343 8.7142956,4.05810569 L8.48148148,4.20370578 L9.81855313,5.60193686 L11.1554171,7 L11.1554171,7 Z" id="Path" fill="#FDEDEA"></path>
            <path d="M16.2069623,3 L14.4814815,6.7965211 C14.5782864,6.85159493 14.6717533,6.91907089 14.7599746,7 L16.4814815,3.21209733 C16.3916706,3.13747438 16.2999523,3.06747596 16.2069623,3 Z" id="Path" fill="#FDEDEA"></path>
            <path d="M15.4814815,9.35750452 L19.4191803,10 C19.443303,9.88173599 19.4645766,9.76274864 19.4814815,9.64321881 L15.5397938,9 C15.5333358,9.12079566 15.5132019,9.2403255 15.4814815,9.35750452 Z" id="Path" fill="#FDEDEA"></path>
            <path d="M13.4814815,10.2244311 L14.1391453,14 C14.2525119,13.9880922 14.3670827,13.9701297 14.4814815,13.9487361 L13.7935407,10 C13.6970328,10.0702356 13.5910635,10.1459206 13.4814815,10.2244311 Z" id="Path" fill="#FDEDEA"></path>
            <circle id="Oval" fill="#21223C" cx="4.98148148" cy="7.5" r="1"></circle>
        </g>
        <g id="iconfinder_shrimp_prawn_crustacean_seafood_food_578561" transform="translate(25.303721, 55.377602) rotate(-18.000000) translate(-25.303721, -55.377602) translate(14.803721, 47.877602)" fill-rule="nonzero">
            <path d="M2.75088906,8.73167363 L3.32223672,8.32816433 C3.26716243,8.29279348 3.21208813,8.25777457 3.15874695,8.22064398 L2.6328452,8.59247788 C2.10097386,8.96712737 1.3389844,8.87808433 0.927660298,8.39309889 C0.636498291,8.04801309 0.602413849,7.59769461 0.795751584,7.23078799 C0.827717783,7.4472365 0.919379897,7.65981357 1.07612981,7.84493864 C1.5402174,8.39257096 2.39155817,8.50325886 3.00469297,8.1057327 C2.96829772,8.07792874 2.9293991,8.0520605 2.89396668,8.0232007 C2.91553424,7.98712595 2.9394126,7.95210705 2.96213556,7.91656022 L2.93459842,7.9359174 C2.40253451,8.31091884 1.64035249,8.22152385 1.22902838,7.73689036 C1.03877173,7.51111521 0.959048795,7.24029061 0.979846081,6.97703291 C1.02952849,6.92582436 1.08441021,6.87778335 1.14564667,6.83431767 L8.32802798,1.75904008 C9.29644976,1.07467565 9.17570996,0.656208528 9.17570996,0.656208528 C9.17570996,0.656208528 9.2577437,1.02909828 8.28912935,1.71346271 L1.04801496,6.680868 C1.12350141,6.48852798 1.25695066,6.31272956 1.44682218,6.17810915 L8.62901092,1.10283155 C9.44530441,0.5258115 9.48766925,0.139019774 9.48092939,0.0314994171 C9.47958142,0.0114383358 9.47688547,0 9.47688547,0 C9.47688547,0 9.55911178,0.372713774 8.59030486,1.05707821 L1.32877833,6.03873742 C1.2898797,6.06618943 1.25309931,6.0952252 1.21843717,6.1254928 C1.21188988,6.13112398 1.20649799,6.13728309 1.19995069,6.14309024 C1.17222098,6.16825458 1.1448764,6.19377087 1.11984263,6.220343 C1.11483587,6.22579821 1.11040682,6.23178134 1.10540007,6.23723654 C1.08017373,6.2650405 1.05571766,6.2931964 1.03337984,6.32258413 C1.03068389,6.32610361 1.02875822,6.32979908 1.02606227,6.33331856 C1.00237647,6.36516993 0.979846081,6.39772519 0.959433929,6.43116033 C0.958471092,6.4327441 0.957700822,6.43432787 0.956737985,6.43591164 C0.868156951,6.58285026 0.812890089,6.74333891 0.791900235,6.90752302 C0.791900235,6.90752302 0.791900235,6.90752302 0.791900235,6.907699 L0.791707667,6.90787497 C0.643430719,7.07628247 0.547339554,7.2726699 0.505744982,7.47820799 C0.504782145,7.48243138 0.504011875,7.48718269 0.503049038,7.4912301 C0.490532152,7.55774842 0.482829454,7.62497064 0.481481481,7.69236884 C0.481481481,7.6946565 0.481674049,7.6960643 0.481674049,7.69817599 C0.480711212,7.76522224 0.485525398,7.83262043 0.495924041,7.8994907 C0.496309176,7.90230629 0.496501744,7.90476993 0.497079446,7.9077615 C0.507670657,7.97111228 0.524424026,8.03411112 0.54541388,8.09587813 C0.549072662,8.10643659 0.552346309,8.11611518 0.556197658,8.12667365 C0.578342916,8.18650494 0.605109794,8.24492844 0.637268561,8.30176817 C0.64266045,8.31162274 0.648822609,8.32042146 0.654407065,8.32992408 C0.689839479,8.38869953 0.728738106,8.44641913 0.774954298,8.50132314 C0.810579279,8.54302907 0.849092772,8.58191941 0.888954237,8.61887404 C0.892420452,8.62221755 0.895886666,8.62450522 0.89935288,8.62784873 C0.938251508,8.66304361 0.979075811,8.6961268 1.02163322,8.72639439 C1.51672417,9.08080683 2.22941636,9.09963609 2.75088906,8.73167363 Z" id="Path" fill="#BD1220"></path>
            <path d="M8.43831865,13.2213804 C8.43831865,13.2213804 8.66541817,13.0076139 9.04223188,12.7577544 C8.38159873,12.6064029 7.81308048,12.2807679 7.41538153,12 C6.84312592,12.3248373 6.48148148,12.6660262 6.48148148,12.6660262 C6.48148148,12.6660262 7.76889171,13.9749472 9.38672844,13.9998733 C9.41882576,14.000671 9.44960401,13.9974804 9.48148148,13.9964834 C8.84217326,13.6315648 8.43831865,13.2213804 8.43831865,13.2213804 Z" id="Path" fill="#BD1220"></path>
            <path d="M8.71346199,9.37474011 C9.31025449,9.05186652 10.6130704,8.10151499 11.3367492,7.56327523 C11.5024387,7.44030923 11.5297949,7.21545711 11.3984462,7.06192527 L11.3984462,7.0617496 L11.3984462,7.0617496 L10.1493727,5.59915684 L8.90010516,4.13638841 C8.7689505,3.98285657 8.52526669,3.95475006 8.35589093,4.07350009 L4.27612734,6.93000032 C3.55438868,7.43521492 2.97893791,8.04705861 2.55016306,8.72091231 C2.52746322,8.75639678 2.50340526,8.79135426 2.48148148,8.82736573 C2.5173744,8.85617491 2.55637157,8.88199777 2.59304055,8.90975295 C2.64426071,8.94857507 2.69528686,8.98757286 2.74844718,9.024287 C2.80199553,9.06135247 2.85748404,9.09630994 2.91316657,9.13109176 C4.55376391,10.1685735 6.98225928,10.310687 8.71346199,9.37474011 Z M5.39676242,8.42157792 C5.19537405,8.56263749 4.90609654,8.52890968 4.75030188,8.34656866 C4.59450722,8.16422765 4.63175825,7.90231006 4.8329526,7.76142616 C5.03434097,7.62054225 5.32361848,7.65391874 5.47941314,7.83625975 C5.63501379,8.0184251 5.59795677,8.28051835 5.39676242,8.42157792 Z" id="Shape" fill="#EC7531"></path>
            <path d="M16.8291084,3.16902729 L14.5594626,6.41601322 C14.4402171,6.58646151 14.4632698,6.7936661 14.5908981,6.89816928 C14.6667625,6.96051083 14.7386451,7.0284379 14.8048693,7.10195048 C15.0307861,7.35329865 15.1672163,7.63960134 15.2179323,7.93347149 C15.2523018,8.13040594 15.4231016,8.32013326 15.6513236,8.35364635 L20.0003255,8.99471932 C20.2287571,9.02859276 20.4406326,8.89598183 20.4586557,8.69796632 C20.5967625,7.19077819 20.1099308,5.6367438 18.9499594,4.34667004 C18.7351499,4.10775415 18.502946,3.88703622 18.258168,3.68217395 C18.2187688,3.64920139 18.1781122,3.61767026 18.1382938,3.58541842 C18.055304,3.51911295 17.9712663,3.45442908 17.8857617,3.39208753 C17.8472007,3.36397978 17.8090589,3.33569185 17.7698693,3.30830481 C17.646642,3.22217977 17.5215285,3.1387574 17.3936907,3.06038002 C17.3630934,3.04200187 17.3310292,3.02938942 17.2987554,3.01929946 C17.2905821,3.01695714 17.282828,3.01515537 17.2750739,3.01317341 C17.2446862,3.00578611 17.2142986,3.00146184 17.1832822,3.00056096 C17.1807673,3.00056096 17.1786716,3.00002042 17.1761568,3.00002042 C17.1021785,2.99929971 17.0300863,3.01767786 16.9661674,3.0515513 C16.9125174,3.08001941 16.8645258,3.11875766 16.8291084,3.16902729 Z" id="Path" fill="#EC7531"></path>
            <path d="M9.56114545,3.64002385 L12.0432222,6.83688216 C12.1737562,7.00495568 12.4215004,7.03976267 12.6182669,6.95687973 C12.9845731,6.80226748 13.386023,6.76746049 13.7648805,6.84611274 C13.9738122,6.8895734 14.2213633,6.81399801 14.3318151,6.63188631 L16.4276967,3.15849514 C16.5178733,3.009652 16.4912258,2.82869413 16.3734362,2.71735023 C16.3473681,2.69273535 16.3184034,2.6702358 16.2832597,2.65350537 C16.1670149,2.59831418 16.0494184,2.54793059 15.9306634,2.49966233 C15.8955196,2.48543185 15.8609552,2.47197059 15.8254252,2.45831702 C15.7346693,2.42312542 15.6437203,2.39024147 15.5512266,2.35889595 C15.5180138,2.34755003 15.4849941,2.3356272 15.4517813,2.32505049 C15.3361158,2.28793585 15.2200642,2.25389808 15.1026608,2.22312947 C15.0599863,2.21178355 15.0171186,2.20236066 14.9740578,2.19178396 C14.8962395,2.17274588 14.8174557,2.15524623 14.7394442,2.13909272 C14.6847976,2.1279391 14.6305372,2.11697778 14.5753112,2.10717029 C14.5040582,2.09428593 14.4328052,2.08351692 14.3607798,2.07294021 C14.2586312,2.05774821 14.1557101,2.04544077 14.052596,2.03486406 C13.9987218,2.02947955 13.9442682,2.02351813 13.890394,2.01928745 C13.8139273,2.01351834 13.7382331,2.00947996 13.6613802,2.00621079 C13.6225676,2.00448006 13.583755,2.00351854 13.5445562,2.00236472 C13.2668818,1.99505717 12.9892074,2.00467236 12.7119192,2.03140259 C12.6999472,2.03255641 12.687782,2.03351793 12.6756169,2.03486406 C12.2704981,2.07601707 11.8684689,2.15409241 11.4728118,2.26909008 C10.836169,2.45427864 10.2176773,2.73273454 9.64050857,3.11388066 C9.46285876,3.23176289 9.43061146,3.47195033 9.56114545,3.64002385 Z" id="Path" fill="#EC7531"></path>
            <path d="M13.3633402,11.0440831 C12.9099102,11.2947941 12.4345764,11.5561153 12.1234283,11.7387151 C11.9493202,11.841053 11.6756148,11.8496097 11.4988857,11.7524058 C11.0842088,11.5251401 10.5656288,11.3288497 9.99725005,11.3199507 C8.61954943,11.2982168 7.48148148,12.385943 7.48148148,12.385943 C7.48148148,12.385943 7.6715027,12.5789818 7.9907009,12.8062475 C8.32955646,13.0472038 8.81368933,13.3266652 9.37607725,13.4565558 C9.05519413,13.6709864 8.86180308,13.8544418 8.86180308,13.8544418 C8.86180308,13.8544418 9.2057134,14.2064639 9.74994165,14.5201521 C10.1777234,14.7667559 10.729253,14.9897432 11.3358231,14.9996689 C11.7731528,15.0066854 12.1859575,14.9014381 12.5457809,14.7546054 C12.7346788,14.6777663 13.0398361,14.6483313 13.242775,14.6854673 C13.5352017,14.7388611 13.8495324,14.7623064 14.1750958,14.7573435 C14.381779,14.7537497 14.5150747,14.5889479 14.474075,14.4037812 L13.7583596,11.2023818 C13.7171728,11.0167017 13.5404437,10.9461946 13.3633402,11.0440831 Z" id="Path" fill="#EC7531"></path>
            <path d="M14.5527047,9.31135364 C14.4718033,9.48224634 14.3654474,9.64300471 14.2344265,9.78746866 C14.1983168,9.82661501 14.1614178,9.86576137 14.1225456,9.90252317 C14.0787404,9.94306051 14.0345406,9.98260429 13.986789,10.0199622 C13.9268035,10.0664609 13.8285378,10.1336257 13.7032392,10.2147004 C13.5434094,10.3180309 13.4481035,10.5731777 13.4923033,10.7881845 L14.2813888,14.6759936 C14.325194,14.8911992 14.5349459,15.0388425 14.7476576,14.9909528 C15.5507528,14.8095283 16.3479284,14.4605893 17.0044143,13.9498983 C18.2720025,12.9624961 19.1039065,11.6186039 19.4701337,10.1668107 C19.5236076,9.95438712 19.382326,9.74891845 19.1676411,9.71175922 L15.0761965,9.0057339 C14.8617089,8.96897209 14.6474187,9.11343604 14.5527047,9.31135364 Z" id="Path" fill="#EC7531"></path>
            <path d="M11.1554171,7 C11.2980962,6.90461263 11.3820007,6.84751455 11.3820007,6.84751455 C11.4141918,6.82736229 11.448252,6.809897 11.4814815,6.79159203 L8.81190723,4 C8.77971616,4.01964845 8.74648667,4.03795343 8.7142956,4.05810569 L8.48148148,4.20370578 L9.81855313,5.60193686 L11.1554171,7 L11.1554171,7 Z" id="Path" fill="#FDEDEA"></path>
            <path d="M16.2069623,3 L14.4814815,6.7965211 C14.5782864,6.85159493 14.6717533,6.91907089 14.7599746,7 L16.4814815,3.21209733 C16.3916706,3.13747438 16.2999523,3.06747596 16.2069623,3 Z" id="Path" fill="#FDEDEA"></path>
            <path d="M15.4814815,9.35750452 L19.4191803,10 C19.443303,9.88173599 19.4645766,9.76274864 19.4814815,9.64321881 L15.5397938,9 C15.5333358,9.12079566 15.5132019,9.2403255 15.4814815,9.35750452 Z" id="Path" fill="#FDEDEA"></path>
            <path d="M13.4814815,10.2244311 L14.1391453,14 C14.2525119,13.9880922 14.3670827,13.9701297 14.4814815,13.9487361 L13.7935407,10 C13.6970328,10.0702356 13.5910635,10.1459206 13.4814815,10.2244311 Z" id="Path" fill="#FDEDEA"></path>
            <circle id="Oval" fill="#21223C" cx="4.98148148" cy="7.5" r="1"></circle>
        </g>
    </g>
</svg>