<?xml version="1.0" encoding="UTF-8"?>
<svg width="257px" height="376px" viewBox="0 0 257 376" version="1.1" xmlns="http://www.w3.org/2000/svg" xmlns:xlink="http://www.w3.org/1999/xlink">
    <g id="Page-1" stroke="none" stroke-width="1" fill="none" fill-rule="evenodd" opacity="0.2">
        <g id="iconfinder_Food_C204_2427850" transform="translate(160.143354, 166.204983) rotate(50.000000) translate(-160.143354, -166.204983) translate(-1.356646, 5.204983)" fill-rule="nonzero">
            <g id="Group" transform="translate(9.710982, 12.329207)">
                <path d="M126.310921,176.286433 C128.779204,176.2156 130.911064,176.08456 132.366536,175.907477 C136.212383,175.422273 138.429234,167.605871 138.404444,154.845339 C134.377992,153.974095 130.337374,152.706188 126.282591,151.105366 C125.946168,150.974325 125.609745,150.83266 125.266239,150.694536 C123.679739,150.039332 122.082614,149.334545 120.499655,148.569551 C120.028663,148.346428 119.550588,148.130388 119.079596,147.896639 C117.241664,146.975813 115.403731,146.005403 113.565799,144.928744 C113.484349,144.886244 113.399358,144.847286 113.317908,144.804787 C111.476435,143.728128 109.581842,142.495637 107.655377,141.171063 C107.00732,140.724816 106.345098,140.225445 105.689958,139.76149 C104.415092,138.851288 103.143767,137.92692 101.844112,136.931719 C100.980036,136.26589 100.108877,135.571729 99.2377184,134.866942 C98.1505407,134.006323 97.0669043,133.120913 95.9726441,132.20717 C94.9562923,131.353634 93.9434819,130.500099 92.9235888,129.61823 C91.9957695,128.810736 91.0714914,127.996159 90.1401307,127.163873 C88.9821272,126.129714 87.8276649,125.099096 86.6732026,124.036604 C85.9932739,123.40265 85.3239691,122.77578 84.6404991,122.138285 C64.5896851,103.342796 45.3108734,80.6267111 37.7891622,71.5105273 C22.4305645,83.7823132 8.39286988,107.723806 2.65951277,124.911389 C0.0212477718,132.81279 -0.0885323827,139.262119 2.32663102,144.068125 C4.8303268,149.029964 9.2073678,150.51037 9.39505645,150.570578 L9.74918598,150.729952 L9.75626857,150.687452 L13.7579323,152.954103 C54.1357813,175.698521 114.745051,176.357266 121.52309,176.357266 L126.310921,176.286433 Z" id="Path" fill="#FFFFFF"></path>
                <path d="M50.7361378,223.191926 L51.313369,222.883803 C51.7701961,222.710263 97.0775282,204.909975 115.835769,195.818583 C116.607772,195.439627 117.301866,195.028797 117.932216,194.600258 C117.967629,194.571925 118.006583,194.543592 118.041996,194.525884 C119.975544,193.162352 121.268116,191.480073 121.965752,189.425921 L122.07199,189.110715 C122.613809,187.315103 122.787332,185.126369 122.273844,182.332014 C122.029495,182.332014 121.809935,182.339097 121.558503,182.339097 C114.638812,182.339097 56.3349257,181.683894 14.9548901,160.469465 C14.2501723,177.008928 17.5364944,197.589403 24.0347712,216.61864 C26.4463933,223.701922 30.4126441,227.289604 36.0645514,227.650852 L36.4363874,227.665018 C36.4470113,227.665018 36.4540939,227.665018 36.4647178,227.665018 C43.4977302,227.665018 49.826025,223.755047 50.5874034,223.273384 C50.6334403,223.248592 50.7361378,223.191926 50.7361378,223.191926 Z" id="Path" fill="#F69B77"></path>
                <path d="M97.6795484,269.208467 C97.9557695,268.95701 98.1576233,268.755137 98.1717885,268.74097 L125.021889,235.46017 L138.436316,218.828624 C138.436316,217.532384 138.372573,215.02136 137.997195,212.134923 L137.823672,210.803266 C137.317267,207.583914 136.414236,204.042273 134.760452,201.152294 C133.428925,198.814811 130.503815,196.487953 126.247178,194.355885 C126.1976,194.437343 126.126774,194.515259 126.073654,194.6038 C125.885966,194.901298 125.662864,195.177546 125.453928,195.460877 C125.092715,195.974415 124.706714,196.456078 124.278217,196.923575 C124.044492,197.17149 123.803684,197.422946 123.548711,197.667319 C123.052929,198.148983 122.514652,198.598771 121.930339,199.034393 C121.693072,199.218558 121.459346,199.402724 121.211456,199.579806 C120.358004,200.160635 119.444349,200.709589 118.438622,201.198335 C100.264694,210.017021 57.6806179,226.800858 53.7816518,228.341472 C52.4819964,229.166674 47.2054664,232.293943 40.9196673,233.338727 C48.9654902,249.417777 60.8996554,262.086227 76.4459418,271.046578 C79.6933096,272.92719 82.9371361,273.872808 86.0995128,273.872808 C87.5549851,273.872808 88.872347,273.631976 90.1118004,273.306145 C92.5375876,272.672191 94.5277956,271.581366 95.9195247,270.603873 C95.9301485,270.589707 95.9513963,270.582623 95.9584789,270.57554 C96.6490315,270.090335 97.1802258,269.64763 97.5591444,269.321799 C97.5980986,269.282841 97.6370529,269.247425 97.6795484,269.208467 Z" id="Path" fill="#FFFFFF"></path>
                <path d="M40.5903268,65.4932793 C41.9466429,67.1507673 44.3334759,70.0407463 47.4179441,73.6780115 C59.5291741,87.9189498 83.2416875,114.637089 103.926393,130.971137 C104.096376,131.102178 104.27344,131.250927 104.446964,131.381967 C106.26719,132.81279 108.062626,134.133823 109.826191,135.376938 C110.074082,135.550479 110.332597,135.755894 110.576946,135.925893 C112.549447,137.296508 114.475912,138.539624 116.338633,139.630449 C116.462579,139.704824 116.590065,139.768573 116.717552,139.846489 C118.502365,140.877107 120.287178,141.819183 122.079073,142.701052 C122.557148,142.945425 123.02814,143.161465 123.502674,143.384589 C125.3229,144.238124 127.143125,145.045618 128.966892,145.746863 C129.037718,145.768113 129.108544,145.803529 129.17937,145.828321 C133.428925,147.450392 137.678479,148.643925 141.89262,149.40892 L144.074058,149.7985 C146.942507,150.205789 149.79325,150.428913 152.619204,150.428913 C168.611693,150.428913 179.161212,143.82021 184.034034,139.885447 C198.599382,128.095325 203.472204,118.22123 202.006108,103.441962 C200.348782,86.9591651 149.010624,9.97451582 134.190303,1.7472839 C133.081878,1.13812166 131.757433,0.837082176 130.13552,0.837082176 C118.813999,0.837082176 98.7915152,15.2621858 82.7104932,26.8468933 C74.4982294,32.7649753 66.7427926,38.3501431 60.7863339,41.6190777 C39.7935354,53.1435773 38.1680808,61.5691411 39.3367083,63.9526655 L40.5903268,65.4932793 Z" id="Path" fill="#F69B77"></path>
                <path d="M267.038455,225.394826 L261.71943,224.590874 C247.069091,222.327765 218.296067,232.095611 201.620107,238.413899 C201.676768,238.661813 201.694474,238.945145 201.73697,239.207226 C201.811337,239.674723 201.910493,240.124511 201.95653,240.623883 C202.045062,241.615542 202.059228,242.724076 202.027356,243.882192 C202.020273,244.211565 201.999026,244.551562 201.977778,244.898643 C201.903411,246.212592 201.786548,247.604457 201.57407,249.18757 C201.421794,250.292562 201.195152,251.47547 200.936637,252.690253 C200.887059,252.916918 200.848105,253.143583 200.791444,253.370248 C200.497516,254.641697 200.161093,255.945021 199.789257,257.28022 C199.725514,257.482093 199.665312,257.69105 199.608651,257.900007 C199.176613,259.405204 198.694997,260.924568 198.188592,262.451016 C198.139014,262.585598 198.092977,262.716639 198.050481,262.854763 C197.469709,264.579542 196.853523,266.290154 196.230255,267.961809 C196.201925,268.032642 196.18776,268.085766 196.15943,268.160141 C196.637504,268.216807 197.126203,268.269932 197.611361,268.312431 C199.98757,268.535555 202.413357,268.659512 204.867475,268.691387 C205.67489,268.705554 206.457516,268.76222 207.275556,268.76222 C208.454807,268.748053 209.630517,268.666596 210.81331,268.617013 C212.403351,268.553263 213.993393,268.521388 215.611765,268.390348 C216.065051,268.347848 216.50063,268.280557 216.943292,268.238057 C230.155865,266.980774 244.143981,263.421425 258.585383,257.53876 L259.679643,257.08543 L259.782341,257.127929 C280.686607,248.461534 296.027499,237.563905 299.292573,234.032889 C299.820226,233.466226 299.891052,233.182895 299.891052,233.182895 C298.364753,230.13 278.756601,227.169189 267.038455,225.394826 Z" id="Path" fill="#F69B77"></path>
                <path d="M259.736304,263.527675 C259.028045,263.811006 258.333951,264.034129 257.629234,264.313919 C256.432276,264.774332 255.21407,265.217037 253.995865,265.663284 C252.494355,266.205155 250.992846,266.747026 249.498419,267.239314 C248.336875,267.628895 247.164706,267.975976 245.981913,268.340765 C244.395413,268.833053 242.808913,269.325341 241.247201,269.757421 C240.152941,270.047836 239.058681,270.302834 237.964421,270.586165 C236.282305,271.00762 234.603731,271.436159 232.93224,271.797406 C231.86631,272.027613 230.775591,272.208236 229.688414,272.417193 C227.995674,272.746566 226.302935,273.07948 224.634985,273.330937 C223.47344,273.51156 222.308354,273.628434 221.139727,273.773642 C219.528437,273.975515 217.899441,274.177389 216.3094,274.315513 C215.098277,274.421762 213.883613,274.464262 212.668948,274.535095 C211.078907,274.616552 209.499489,274.701552 207.934236,274.722802 C207.484492,274.722802 207.031206,274.772385 206.585003,274.772385 C205.67489,274.772385 204.786025,274.69801 203.890077,274.683844 C202.671872,274.648427 201.453666,274.613011 200.26025,274.54572 C198.94997,274.471345 197.657398,274.340304 196.361283,274.216347 C195.536162,274.131348 194.686251,274.103014 193.868212,273.993224 C192.430446,277.527781 191.116625,280.492135 190.238384,282.425871 C189.92675,283.127116 189.657611,283.71857 189.477005,284.10815 C189.477005,284.320649 189.409721,284.667729 189.399097,284.922727 C189.370766,285.248558 189.356601,285.524806 189.296399,285.932095 C189.253904,286.20126 189.158289,286.498758 189.094545,286.803339 C188.977683,287.359376 188.83249,287.915414 188.605847,288.542285 C188.563351,288.687492 188.556269,288.797283 188.496067,288.949573 C202.034439,294.917238 222.506667,298.9795 239.650077,298.9795 C262.611836,298.9795 282.400594,285.613347 286.133119,278.746106 C286.200404,277.471115 281.440903,272.009905 259.736304,263.527675 Z" id="Path" fill="#F69B77"></path>
                <path d="M189.328271,269.233258 C189.349519,269.183675 189.363684,269.134092 189.392014,269.084509 C190.171099,267.111815 190.889982,265.199329 191.530957,263.403717 C191.580535,263.265593 191.626572,263.141636 191.669067,263.007053 C192.352537,261.083942 192.954557,259.259997 193.478669,257.56001 C193.492834,257.503343 193.514082,257.45376 193.528247,257.397094 C194.045276,255.697106 194.477314,254.10691 194.82082,252.651295 C194.84915,252.534421 194.877481,252.421089 194.90227,252.307756 C195.235152,250.880475 195.493666,249.552359 195.653024,248.383618 C196.332953,243.336779 196.201925,240.174094 195.199739,237.804736 C195.199739,237.79057 195.192656,237.79057 195.192656,237.776403 L194.852692,236.983076 C193.450339,234.394136 190.80145,232.212485 186.42795,228.667303 C182.252763,225.267327 166.674605,220.436529 144.329031,215.534898 C144.43527,217.521759 144.428188,218.920707 144.403399,219.579452 C144.403399,219.827367 144.399857,219.986741 144.399857,220.015074 L144.357362,221.003192 L144.350279,221.010275 L144.350279,221.017358 L102.704646,272.640317 C102.65861,272.6899 102.492169,272.86344 102.244278,273.111355 C102.1947,273.157396 102.145122,273.210521 102.08492,273.260104 C101.844112,273.500935 101.521854,273.784267 101.121687,274.131348 C101.050862,274.198639 100.969412,274.258847 100.884421,274.322596 C100.452383,274.687385 99.95306,275.066341 99.3758289,275.480713 C99.2766726,275.544462 99.1810576,275.60467 99.0783601,275.679045 C98.4692573,276.104042 97.7857873,276.51133 97.0350327,276.932786 C96.9642068,276.975285 96.9181699,277.014243 96.847344,277.04966 C117.521426,291.141849 137.416423,293.178293 155.930315,293.178293 L163.565348,293.146418 C165.134141,293.146418 166.642733,293.153501 168.073417,293.199542 L169.220796,293.220792 C174.925823,293.220792 179.001854,291.928093 181.335567,289.367487 C181.735734,288.935407 181.976542,288.485618 182.242139,288.039372 C182.458158,287.685207 182.677718,287.32396 182.815829,286.983963 C182.904361,286.753756 182.975187,286.544799 183.042472,286.328759 C183.152252,285.981678 183.272656,285.623972 183.336399,285.326475 C183.371812,285.131684 183.385977,284.986477 183.407225,284.827103 C183.435556,284.60398 183.481592,284.34544 183.488675,284.175441 C183.488675,283.93461 183.488675,283.732736 183.488675,283.725653 L183.417849,282.914617 L183.768437,282.185039 C183.796768,282.128373 184.56877,280.488593 185.684278,277.945695 C186.697089,275.64717 187.982579,272.608442 189.317647,269.2368 L189.328271,269.2368 L189.328271,269.233258 Z" id="Path" fill="#F69B77"></path>
            </g>
            <g id="Group" transform="translate(0.762601, 0.439906)" fill="#434B56">
                <path d="M163.484,172.058707 C149.687538,172.058707 135.611538,167.916335 121.655846,159.755508 C89.5584615,140.969673 43.4346154,83.6597773 41.4849231,81.2310018 L41.0673846,80.6609831 C40.3101538,79.5280266 37.9641538,75.3290066 39.5175385,68.9561264 C41.7326154,59.9066364 50.5327692,51.2643027 66.4204615,42.5405377 C71.7741538,39.6019318 79.258,34.2062265 87.1841538,28.4954177 C106.344923,14.6875105 126.153231,0.40517773 141.025385,0.40517773 C144.524923,0.40517773 147.691846,1.18054483 150.441231,2.7064956 C168.328154,12.6375673 221.836769,92.9889659 223.839538,112.929 C226.125385,135.963422 214.618308,148.712723 201.830308,159.058032 C191.473231,167.44545 177.857231,172.058707 163.484,172.058707 Z M55.2530769,72.5922086 C62.652,81.6416986 102.944462,130.100372 129.801385,145.823684 C141.251846,152.52937 152.585538,155.928239 163.487538,155.928239 C177.906769,155.928239 187.340308,150.033325 191.692615,146.51762 C205.029077,135.712047 209.087692,127.646813 207.792615,114.536382 C206.324154,99.9212434 155.766615,24.1158328 142.603538,16.8118039 C142.292154,16.6347794 141.715385,16.5391862 141.021846,16.5391862 C131.354769,16.5391862 111.270462,31.0127054 96.6106154,41.5846057 C88.2704615,47.5928155 80.3973846,53.2682195 74.1803077,56.6847914 C58.6995385,65.189046 55.7909231,70.8715309 55.2530769,72.5922086 Z" id="Shape"></path>
                <path d="M132.451692,197.982168 C124.978462,197.982168 58.4907692,197.224503 15.8947692,171.244395 C13.2763077,170.168086 7.26446154,167.020592 3.54907692,159.787372 C-0.329076923,152.235509 -0.463538462,142.874456 3.17046154,131.983912 C9.88646154,111.834989 26.2518462,84.562602 44.5350769,71.4273877 L50.692,67.0053169 L55.4830769,72.8789882 C60.1892308,78.6464448 102.268615,129.714459 129.797846,145.827224 C137.759385,150.482967 145.791692,153.563193 153.668308,154.975848 L160.154308,156.137128 L160.306462,162.729519 C160.490462,170.801834 161.056615,195.362206 144.634615,197.440473 C141.786154,197.794522 137.575385,197.982168 132.451692,197.982168 Z M48.1690769,89.3281002 C35.0944615,101.599435 23.4918462,122.024516 18.4707692,137.089297 C16.2946154,143.610878 16.0964615,148.91099 17.894,152.416074 C19.3306154,155.220142 21.8358462,156.264586 21.8606154,156.271667 L22.8478462,156.576149 L23.7253846,157.117844 C55.2141538,176.63656 106.889846,181.844619 132.455231,181.844619 C137.504615,181.844619 140.434462,181.642811 141.881692,181.504732 C142.447846,180.562962 143.824308,177.457953 144.149846,169.346693 C136.612923,167.303831 129.072462,164.089067 121.662923,159.755508 C96.4089231,144.981047 62.2946154,106.131261 48.1690769,89.3281002 Z" id="Shape"></path>
                <path d="M47.9709231,249.32634 C41.5875385,249.32634 30.0698462,246.915267 24.5463077,230.738773 C20.9087692,220.053577 12.7030769,192.289062 15.2543077,165.360102 L16.422,152.993174 L27.2426154,159.086356 C66.4593846,181.19671 125.788769,181.826917 132.426923,181.833998 C133.467231,181.833998 134.458,181.819836 135.392154,181.805674 L141.637538,181.695919 L143.311231,187.711209 C146.867385,200.545482 142.589385,210.972222 131.563538,216.325442 C113.535077,225.077531 73.186,241.020353 67.0396923,243.438507 C64.4283077,245.049429 56.672,249.32634 47.9709231,249.32634 L47.9709231,249.32634 Z M30.9686154,178.95204 C31.3932308,193.322885 34.4964615,209.945481 39.8147692,225.527173 C42.4296923,233.185251 46.0070769,233.17817 47.9709231,233.192332 C52.4966154,233.192332 57.6981538,230.303292 58.8446154,229.527925 L59.5806154,229.028716 L60.4121538,228.710072 C60.8686154,228.525967 105.959231,210.8129 124.522,201.802356 C126.195692,200.988043 127.710154,200.02503 128.230308,197.907818 C113.467846,197.582093 67.7792308,195.199344 30.9686154,178.95204 Z" id="Shape"></path>
                <path d="M97.0175385,295.465993 C91.9009231,295.465993 86.7949231,294.021474 81.8516923,291.160758 C63.0306154,280.305619 48.9263077,264.596469 39.9421538,244.493573 L34.6592308,232.67542 L47.9638462,233.142765 L47.9638462,233.142765 C52.5178462,233.142765 57.7229231,230.278509 58.8658462,229.513763 L59.5947692,229.028716 L60.4121538,228.710072 C60.8686154,228.525967 105.959231,210.8129 124.522,201.802356 C127.027231,200.591509 127.727846,199.313392 128.060462,198.339758 L130.873538,190.079797 L138.888154,193.531773 C147.019538,197.040398 152.373231,201.18277 155.242923,206.206724 C160.862,216.063446 160.423231,229.336739 160.352462,230.816663 L160.235692,233.457868 L117.285846,286.699742 C116.475538,287.591946 109.034154,295.465993 97.0175385,295.465993 Z M59.4072308,247.102913 C66.8521538,259.685811 77.0818462,269.783286 89.9158462,277.182908 C92.3786154,278.606184 94.7706154,279.328444 97.0175385,279.328444 C101.500769,279.328444 104.706615,276.460648 105.230308,275.957899 L144.227692,227.60544 C144.093231,223.923331 143.420923,218.060281 141.234154,214.21531 C141.011231,213.836478 140.310615,212.845141 138.389231,211.506836 C136.499692,213.422241 134.206769,215.043785 131.549385,216.325442 C113.517385,225.084612 73.1223077,241.038055 67.0184615,243.445588 C65.6809231,244.266981 62.9421538,245.810634 59.4072308,247.102913 Z" id="Shape"></path>
                <path d="M180.086462,314.797063 C179.605231,314.797063 179.113385,314.789982 178.603846,314.77582 C177.276923,314.733334 175.882769,314.726253 174.417846,314.726253 L166.806615,314.754577 C145.066308,314.754577 121.532,312.148777 96.6990769,293.228404 L83.3343077,283.042417 L99.636,278.977936 C102.682615,278.220271 104.816308,276.350893 105.258615,275.933115 L144.206462,227.633764 C144.160462,226.461862 144.057846,224.974856 143.849077,223.339151 L142.384154,212.048531 L153.523231,214.410037 C195.195692,223.2648 201.932923,228.749018 204.140923,230.554667 C214.738615,239.165137 219.692462,244.001445 217.442,260.429314 C215.828462,272.304114 207.796154,290.509308 205.315692,295.912095 C205.075077,298.744486 204.052462,303.315257 200.337077,307.369117 C195.818462,312.293937 189.006923,314.797063 180.086462,314.797063 Z M174.417846,298.585164 C176.049077,298.585164 177.606,298.599326 179.081538,298.648893 L180.082923,298.663055 C184.116769,298.663055 187.163385,297.862904 188.440769,296.471492 C189.120154,295.724449 189.282923,294.701247 189.282923,294.694166 L189.084769,292.516766 L190.026,290.534092 C192.775385,284.738311 200.177846,267.630668 201.455231,258.244832 C202.573385,250.073383 202.573385,250.073383 194.063385,243.158808 C192.035846,241.5054 182.768615,237.653348 160.281692,232.445288 L160.246308,233.436625 L117.254,286.731607 C117.179692,286.813038 117.013385,286.986522 116.765692,287.230816 C134.956923,297.622151 151.955692,298.620569 166.803077,298.620569 L174.417846,298.585164 Z" id="Shape"></path>
                <path d="M217.410154,290.388932 C212.021077,290.388932 206.709846,290.003019 201.610923,289.227651 L191.579385,287.719403 L195.316,278.284 C199.615231,267.418239 201.030615,261.388786 201.462308,258.237751 C202.166462,253.022611 201.745385,251.220502 201.366769,250.317677 L198.114923,242.652518 L205.878308,239.639562 C224.586154,232.402802 250.523077,223.76755 267.826154,223.76755 C270.115538,223.76755 272.259846,223.91271 274.191846,224.210111 L279.471231,225.020883 C305.351538,228.926042 317.937846,231.209658 321.104769,240.287472 C321.766462,242.174552 322.796154,247.117075 318.146615,252.119786 C310.928154,259.8947 265.625231,290.388932 217.410154,290.388932 Z M213.981385,274.180573 C215.120769,274.223059 216.267231,274.244302 217.413692,274.244302 C253.021231,274.244302 287.910462,254.817639 301.225692,245.290183 C294.714923,243.633234 284.548923,242.100202 277.061538,240.963705 L271.743231,240.160014 C270.618,239.98653 269.301692,239.894477 267.829692,239.894477 C257.263846,239.894477 239.702462,244.284684 217.944462,252.325134 C218.032923,254.697262 217.863077,257.342007 217.442,260.408071 C216.932462,264.153908 215.771846,268.763625 213.981385,274.180573 Z" id="Shape"></path>
                <path d="M250.445231,320.557439 C230.569692,320.557439 206.384308,315.42373 191.632462,308.066594 L183.172,303.856952 L188.667231,296.152848 C189.123692,295.51556 189.286462,294.6446 189.286462,294.6446 L189.109538,292.502604 L190.029538,290.555335 C190.057846,290.498687 192.697538,284.87639 195.436308,277.908708 L202.930769,280.397672 L203.999385,273.274208 C222.862923,276.106599 244.543077,272.71127 267.454615,263.378541 L270.412769,262.167694 L273.392154,263.321893 C303.412462,274.88513 306.080462,282.12543 307.219846,285.219818 C308.380462,288.367313 308.168154,291.68121 306.611231,294.549006 C299.930615,306.855746 275.225077,320.557439 250.445231,320.557439 Z M205.280308,296.407763 C218.011692,301.176802 235.778308,304.42343 250.448769,304.42343 C268.491385,304.42343 284.382615,295.288969 290.320154,289.454243 C287.432769,287.326409 281.378462,283.877973 270.518923,279.523171 C248.421231,288.094695 227.307231,291.645805 207.930615,289.978235 C206.851385,292.513225 205.931385,294.57379 205.333385,295.887311 C205.312154,296.046633 205.301538,296.223658 205.280308,296.407763 Z" id="Shape"></path>
            </g>
        </g>
    </g>
</svg>