<?xml version="1.0" encoding="UTF-8"?>
<svg width="1173px" height="433px" viewBox="0 0 1173 433" version="1.1" xmlns="http://www.w3.org/2000/svg" xmlns:xlink="http://www.w3.org/1999/xlink">
    <!-- Generator: Sketch 53.2 (72643) - https://sketchapp.com -->
    <title>waves</title>
    <desc>Created with Sketch.</desc>
    <g id="Page-1" stroke="none" stroke-width="1" fill="none" fill-rule="evenodd">
        <g id="waves" fill="#FFFFFF" fill-rule="nonzero">
            <g id="Group" transform="translate(586.500000, 216.500000) scale(-1, 1) rotate(-180.000000) translate(-586.500000, -216.500000) ">
                <path d="M491.453821,430.064407 C490.628926,428.413136 485.496249,422.725424 480.180263,417.404661 C465.515471,402.910169 450.66737,394.929025 430.686592,390.617373 C419.046414,388.140466 397.415846,388.69089 386.325598,391.71822 C364.786685,397.497669 342.972808,411.992161 331.33263,428.229661 C329.774496,430.339619 328.308017,432.082627 328.033052,432.082627 C327.758087,431.99089 326.016643,429.880932 324.275199,427.404025 C319.509142,420.523729 307.135724,409.33178 298.15354,403.735805 C288.71308,397.772881 276.706282,393.09428 264.699484,390.617373 C252.326067,388.048729 231.062119,388.69089 219.788561,391.901695 C198.157993,398.231568 179.18542,410.707839 166.628692,427.037076 C164.520628,429.789195 162.504219,432.082627 162.1376,432.082627 C161.862635,431.99089 159.937881,429.697458 157.921472,426.945339 C150.497421,416.579025 135.007736,404.011017 122.634318,398.415042 C107.969526,391.71822 94.9545241,388.966102 78.6399437,388.966102 C50.5935302,388.966102 27.221519,398.965466 7.51570558,419.422881 C1.92475387,425.202331 -0.274964838,427.037076 0.0916549461,425.56928 C0.366619784,424.376695 3.39123301,403.093644 6.78246601,378.232839 L13.0150023,333.098093 L18.1476793,329.336864 C30.4294421,320.163136 47.568917,314.383686 67.1830755,312.732415 C105.311533,309.613347 139.132208,322.364831 158.196437,347.133898 L162.32091,352.454661 L164.612283,349.427331 C168.736756,343.831356 179.827004,333.465042 185.784576,329.428602 C219.513596,306.49428 271.48195,306.586017 305.485935,329.612076 C312.360056,334.290678 319.417487,340.895763 324.366854,347.317373 L328.124707,352.271186 L330.049461,349.702542 C332.157525,346.950424 344.255977,333.648517 349.755274,328.14428 C354.612986,323.282203 369.644398,315.94322 380.642991,313.191102 C385.684013,311.998517 394.666198,310.622458 400.807079,310.163771 C440.676981,307.411653 473.214487,320.254873 492.9203,346.675212 L495.303329,349.79428 L500.161041,343.739619 C510.70136,330.345975 530.865448,317.869703 549.013127,313.282839 C565.694327,309.154661 586.68331,308.787712 603.54782,312.273729 C626.186592,317.044068 645.25082,328.878178 658.907407,346.583475 L661.290436,349.702542 L664.681669,345.115678 C671.830755,335.391525 685.212377,324.841737 697.769105,319.245763 C712.067276,312.824153 726.273793,309.980297 744.054852,309.980297 C767.610173,309.888559 787.041022,315.025847 801.797468,325.025212 C808.030005,329.336864 812.796062,333.373305 812.796062,334.474153 C812.796062,335.116314 814.170886,336.58411 815.820675,337.868432 C817.378809,339.152754 820.861697,342.822246 823.336381,346.124788 C825.902719,349.427331 828.102438,352.179449 828.377403,352.179449 C828.652368,352.271186 829.568917,351.170339 830.393812,349.79428 C832.77684,345.849576 843.775434,335.024576 850.00797,330.621186 C868.613924,317.31928 896.110408,310.438983 921.223863,312.732415 C950.553446,315.484534 974.567042,327.226907 989.140178,345.941314 L993.99789,352.087712 L999.222222,345.757839 C1016.63666,324.383051 1044.95804,312.457203 1077.67886,312.548941 C1105.08368,312.732415 1125.24777,319.154025 1141.83732,333.006356 C1145.87014,336.400636 1146.23676,337.042797 1146.78669,341.904873 C1147.06165,344.840466 1150.17792,366.582203 1153.56915,390.250424 C1159.25176,429.422246 1159.61838,433 1157.96859,430.614831 C1147.06165,415.569915 1130.74707,402.451483 1115.16573,396.213347 C1103.34224,391.534746 1095.00164,389.791737 1081.62002,389.241314 C1061.63924,388.415678 1047.891,391.351271 1031.39311,399.791102 C1017.73652,406.854873 1001.69691,420.431992 996.289264,429.513983 C994.456165,432.724788 993.99789,432.724788 991.981481,429.60572 C981.716128,413.735169 958.894046,397.956356 937.446789,392.085169 C925.623301,388.874364 905.092593,388.048729 893.085795,390.250424 C878.787623,393.002542 865.131036,398.873729 852.665963,407.772246 C846.066807,412.450847 836.076418,422.175 831.951946,427.954449 C830.302157,430.247881 828.652368,432.082627 828.285748,432.082627 C827.827473,432.082627 826.177684,430.156144 824.527895,427.770975 C813.895921,412.083898 792.723629,398.048093 771.001406,391.993432 C762.660806,389.7 760.552743,389.424788 745.429677,389.424788 C727.373652,389.424788 721.599391,390.342161 708.309423,395.571186 C694.561181,400.983686 678.521566,412.35911 670.089311,422.725424 C666.789733,426.853602 666.148148,427.220551 666.148148,425.477542 C666.056493,423.551059 665.964838,423.551059 663.58181,426.394915 L661.015471,429.513983 L658.357478,425.936229 C642.776137,405.295339 618.854196,391.076059 592.824191,387.039619 C582.008908,385.388347 563.036334,386.489195 552.496015,389.424788 C541.039147,392.543856 527.38256,399.332415 517.575481,406.763136 C510.15143,412.35911 500.802625,421.991525 497.044773,427.770975 C495.578293,430.156144 495.394984,430.156144 494.111814,428.688347 C492.9203,427.220551 492.9203,427.312288 493.378575,430.064407 C493.745195,431.623941 493.745195,433 493.47023,433 C493.195265,433 492.278715,431.623941 491.453821,430.064407 Z" id="Path"></path>
                <path d="M166.170417,267.322458 C161.312705,260.442161 151.230661,250.99322 143.073371,245.58072 C123.734177,232.7375 99.3539616,226.682839 76.8984998,229.159746 C52.5182841,231.911864 34.3706048,240.626907 16.956165,257.78178 C12.0984529,262.735593 8.06563526,266.22161 8.06563526,265.671186 C8.06563526,265.120763 10.9069386,244.204661 14.3898265,219.252119 L20.8056728,173.842161 L24.5635256,170.539619 C29.1462729,166.594915 40.3281763,160.540254 47.9355368,157.97161 C67.6413502,151.366525 95.4127989,150.54089 116.585091,155.95339 C137.299109,161.274153 155.538444,172.741314 166.262072,187.327542 L170.11158,192.556568 L173.961088,187.511017 C200.266057,153.476483 255.53399,142.284534 300.078293,162.008051 C311.626817,167.145339 325.833333,178.520763 333.624004,188.978814 L336.098687,192.189619 L337.656821,189.896186 C338.573371,188.611864 342.514534,184.300212 346.455696,180.172034 C350.396859,176.135593 353.604782,172.374364 353.604782,171.823941 C353.604782,170.264407 363.961791,162.833686 370.469292,159.714619 C383.942569,153.384746 396.315987,150.54089 414.097046,149.806992 C444.159869,148.522669 471.473043,157.512924 489.804032,174.576059 C493.47023,178.062076 497.961322,182.832415 499.794421,185.401059 L503.185654,189.896186 L506.851852,185.125847 C532.148617,153.201271 579.625879,141.183686 623.345288,155.678178 C636.818565,160.173305 647.267229,166.503178 657.074308,176.135593 C661.382091,180.447246 665.873183,185.217585 666.881388,186.685381 L668.806142,189.4375 L671.280825,186.226695 C676.321847,179.62161 688.145335,169.071822 695.294421,164.760169 C727.556962,145.403602 772.284576,144.394492 805.188701,162.283263 C810.504688,165.127119 820.220113,172.649576 820.861697,174.392585 C821.045007,174.851271 823.428036,177.511653 826.177684,180.355508 C828.927332,183.199364 832.318565,187.144068 833.69339,189.162288 L836.076418,192.83178 L837.451242,190.721822 C840.659165,185.676271 853.215893,173.750424 860.181669,169.163559 C878.421003,156.9625 899.501641,151.458263 924.156821,152.55911 C956.144398,153.935169 981.441163,165.861017 998.947257,187.877966 L1002.06353,191.914407 L1007.01289,185.859746 C1016.91163,173.566949 1034.23441,162.283263 1050.36568,157.421186 C1064.48054,153.201271 1068.2384,152.742585 1085.9278,152.834322 C1099.67604,152.834322 1104.4421,153.201271 1111.22457,154.760805 C1126.89756,158.430297 1140.37084,164.760169 1149.44468,172.741314 L1153.75246,176.59428 L1160.62658,224.205932 C1164.47609,250.351059 1167.31739,272.001059 1167.13408,272.184534 C1166.95077,272.459746 1166.30919,271.725847 1165.6676,270.625 C1163.46789,266.405085 1153.4775,255.855297 1146.51172,250.259322 C1104.16714,216.408263 1041.20019,223.288559 1007.1962,265.579449 L1001.88022,272.276271 L997.389123,266.313347 C991.706517,258.79089 984.007501,251.635381 974.567042,245.397246 C934.605485,218.701695 881.353962,224.389407 847.991561,258.974364 C843.958744,263.102542 839.650961,267.872881 838.367792,269.524153 L836.076418,272.551483 L830.668776,265.579449 C811.329583,240.259958 775.584154,225.398517 742.863338,229.159746 C726.365448,230.994492 710.417487,236.590466 698.227379,244.938559 C690.345054,250.259322 680.904594,258.699153 677.605016,263.102542 C674.672058,267.23072 673.022269,268.056356 673.938819,265.120763 C674.855368,262.368644 673.847164,262.919068 671.280825,266.588559 L669.081106,269.799364 L664.956634,264.478602 C650.475152,245.672458 630.036099,233.012712 605.655884,227.875424 C595.57384,225.765466 575.868026,225.673729 566.610877,227.783686 C541.222457,233.471398 520.416784,246.95678 505.018753,267.505932 C503.368964,269.799364 502.910689,269.982839 501.99414,268.790254 C501.2609,267.689407 501.07759,267.964619 501.44421,269.982839 C501.99414,273.285381 501.07759,273.101907 498.877872,269.524153 C497.961322,267.872881 493.928504,263.19428 489.987342,259.066102 C451.950539,219.435593 389.075246,218.426483 349.663619,256.772669 C345.630802,260.625636 340.956399,265.671186 339.214955,268.056356 L336.007032,272.459746 L331.974215,267.047246 C326.566573,259.8 316.209564,250.259322 308.510549,245.213771 C272.306845,221.729025 226.479372,223.380297 192.475387,249.250212 C185.601266,254.479237 175.060947,265.304237 172.311299,269.891102 C171.486404,271.267161 170.569855,272.459746 170.29489,272.459746 C170.019925,272.459746 168.186826,270.074576 166.170417,267.322458 Z" id="Path"></path>
                <path d="M169.37834,112.65339 C160.85443,102.011864 150.222457,93.6637712 136.840835,87.1504237 C110.352555,74.3072034 82.7644163,72.9311441 56.2761369,83.1139831 C42.3445851,88.5264831 31.5293015,95.8654661 20.0724332,107.699576 C16.4062353,111.552542 13.2899672,114.67161 13.1983122,114.67161 C13.0150023,114.67161 13.2899672,112.194703 13.7482419,109.25911 C14.2065166,106.23178 17.2311299,85.2239407 20.347398,62.4730932 C26.9465541,15.595339 25.2967651,20.5491525 36.6619784,13.6688559 C59.1174402,0 92.3881857,-3.66949153 122.909283,4.03644068 C142.798406,9.08199153 163.329114,22.5673729 172.677918,36.603178 L175.152602,40.4561441 L177.535631,37.4288136 C194.95007,14.8614407 220.88842,2.01822034 252.326067,0.275211864 C285.688467,-1.46779661 317.676043,11.0084746 335.548758,32.8419492 L341.139709,39.6305085 L343.339428,36.9701271 C344.530942,35.5940678 347.83052,32.0163136 350.671824,29.0807203 C353.513127,26.1451271 356.262775,22.8425847 356.72105,21.8334746 C358.187529,18.9896186 369.461088,11.467161 376.976793,8.34809322 C389.991796,2.84385593 405.939756,0 423.262541,0 C452.958744,0 476.972339,8.43983051 492.37037,24.3103814 C496.861463,28.8972458 499.152836,31.7411017 505.568683,40.3644068 C505.751992,40.6396186 506.210267,40.1809322 506.668542,39.3552966 C508.959916,35.2271186 517.025551,26.6955508 523.258087,21.7417373 C535.081575,12.2010593 548.463197,6.05466102 565.511017,2.10995763 C575.134787,-0.0917372881 601.531411,-0.0917372881 611.88842,2.20169492 C625.911627,5.22902542 639.476559,10.825 649.650258,17.7052966 C654.233005,20.8243644 665.414909,31.7411017 669.172761,36.6949153 L671.647445,39.9057203 L674.122128,36.6949153 C687.87037,18.9896186 707.117909,7.43072034 731.40647,2.20169492 C746.529536,-1.00911017 771.826301,-0.366949153 787.315987,3.57775424 C808.30497,8.99025424 827.094233,20.9161017 838.092827,35.8692797 L841.392405,40.3644068 L844.783638,35.9610169 C850.099625,29.2641949 857.523676,22.3838983 864.947726,17.2466102 C897.576887,-5.32076271 950.003516,-5.50423729 983.549226,16.7879237 C990.515002,21.4665254 1000.32208,30.7319915 1005.08814,37.1536017 L1007.10455,39.9057203 L1010.03751,36.2362288 C1019.11135,24.7690678 1033.31786,14.0358051 1046.88279,8.34809322 C1076.67065,-4.03644068 1117.27379,-2.2934322 1143.02883,12.4762712 C1150.45288,16.7879237 1159.25176,23.6682203 1159.25176,25.2277542 C1159.25176,26.2368644 1171.35021,111.185593 1172.45007,117.882415 L1172.90835,120.634534 L1170.43366,117.423729 C1166.03422,111.736017 1155.3106,100.81928 1150.08626,96.782839 C1139.17932,88.3430085 1124.05626,81.3709746 1110.21636,78.3436441 C1101.32583,76.417161 1080.70347,76.1419492 1072.63783,77.8849576 C1047.43272,83.1139831 1024.88561,96.6911017 1011.32068,114.763347 L1007.28786,120.08411 L1003.53,115.313771 C994.36451,103.296186 980.982888,92.5629237 967.326301,86.1413136 C934.422175,70.7294492 897.210267,73.8485169 867.2391,94.5811441 C859.540084,99.9936441 849.45804,109.534322 844.875293,115.955932 C842.03399,119.808898 840.292546,121.184958 840.292546,119.533686 C840.292546,119.075 839.375996,117.790678 838.367792,116.506356 L836.534693,114.212924 L836.901313,117.240254 C837.359587,121.001483 836.534693,121.001483 834.334974,117.240254 C831.402016,112.194703 818.478669,99.4432203 811.329583,94.4894068 C791.990389,81.0957627 767.518519,74.490678 747.079466,77.059322 C723.06587,80.0866525 703.726676,89.6273305 686.862166,106.782203 C679.89639,113.845975 678.796531,114.67161 679.34646,112.378178 C680.0797,109.350847 679.988045,109.442585 674.947023,115.772458 L671.464135,120.08411 L667.614627,114.855085 C652.583216,94.6728814 626.919831,80.3618644 599.698312,77.059322 C564.869433,72.8394068 527.38256,89.6273305 507.218472,118.432839 C506.485232,119.625424 505.660338,120.359322 505.477028,120.08411 C494.111814,104.030085 480.455227,92.654661 463.682372,85.2239407 C442.051805,75.6832627 419.046414,74.0319915 396.774262,80.3618644 C376.518519,86.1413136 355.437881,100.544068 344.164323,116.322881 L341.323019,120.267585 L339.398265,117.698941 C318.684248,89.1686441 282.755509,72.9311441 248.659869,76.9675847 C220.15518,80.2701271 196.691514,93.4802966 178.08556,116.689831 L175.335912,120.08411 L169.37834,112.65339 Z" id="Path"></path>
            </g>
        </g>
    </g>
</svg>